<svg xmlns="http://www.w3.org/2000/svg" width="4in" height="4in" viewBox="0 0 288 288">
  <g id="Logo_Artwork" data-name="Logo Artwork">
    <path d="M123.56,1.5h54.38q8.13,1.8,70.65,39.3,35.13,59.74,37.9,69.26v69.27q-1.77,8.13-39.29,70.45-64.09,36.72-67.87,36.72H104.71Q39,249.78,35.45,243,1.5,182.91,1.51,179.33V108.67q0-5,39.29-69.26Q103.13,2.9,108.68,2.89,113.63,1.51,123.56,1.5ZM22,82.88Q8.26,107.29,8.25,110.06v27.19a307.11,307.11,0,0,0,27.2-21.83Q24.14,82.89,22,82.88ZM8.25,152.14v29.77q13.7,21.83,13.7,24.61h1.19q12.3-31.76,12.31-33.94Zm1.39-6.75q2.79,0,28.58,21.63h1.19q0-16.28,17.67-16.27l57.15-5.36V144l-66.68-6.75q-4.56,0-8.14-14.88H38.22A330.2,330.2,0,0,0,9.64,145.39ZM28.7,78.9l12.1,32.56q12.31-9.54,13.7-9.53,32.15,14.88,62.31,27.18Q72.76,94.4,61.25,88.43L64,72.16Q28.7,76.91,28.7,78.9Zm1.81-8.31c8.31.22,17.48-1.8,25.56-3.66,2.17-.5,8.66-1.35,9.14-4.3Q68,45.77,69.38,31.27H68C57.83,36.13,45.71,41,39.53,51,36.68,55.66,29.82,65.08,30.51,70.59ZM53.1,186.07l-12.3-8.13q-10.71,25.2-10.71,33.93,30,4,33.93,5.37l-1.39-13.5v-1.39q.6-2.39,51.6-40.69h-1.39Q61.64,184.1,53.1,186.07Zm-23,32.55c4.28,9.21,9.09,19.41,16.58,26.51,5.22,5,12.09,7.73,18.4,11,3.56,1.83,4.58,2.21,4.44-2.27-.09-3-1-5.95-1.38-8.94-.43-3.71-.88-7.41-1.45-11.09-.51-3.28-.66-8.16-2.66-11ZM43.58,118.2q3.16,13.5,13.5,13.5,7.33,0,62.51,6.94H121v-1.39q-46.64-18.06-65.1-28.58Q52.11,110.07,43.58,118.2Zm0,53q9.33,8.15,10.92,8.14l65.09-27.19v-1.39h-1.38q-70.66,6.75-70.66,9.53Q47.55,162.07,43.58,171.19ZM68,205.13c.93,2.11,1.85,6.62,2.78,13.49h4L84.26,220Q91,209.3,127.73,161.66h-1.39Q114,169.81,68,205.13ZM69.38,84.27q0,1.78,57,43.46h1.39Q84.07,69.38,82.88,69.38q-13.5,0-13.5,8.14Zm6.75-54.19L72.16,64h1.19L87,62.63q37.9,50.41,39.3,54.18h1.39v-1.39q-25.82-57-25.8-63.71,1.78,0,8.13-9.52V40.8Q81.49,30.09,76.13,30.08ZM87,226.76Q74.94,225.38,72.16,224v1.39l4,33.94h1.39q4,0,32.54-12.11l-8.13-12.31q0-1.78,25.8-62.31Q125.74,173.17,87,226.76Zm-5.55,38.11v1.19c8,4,15.62,8.56,23.34,13a13.41,13.41,0,0,0,3.88,1.7c4.69,1,10.68.44,15.54.65,2.27.1,8.93,1.38,10.85-.3,2.15-1.89-7.09-12.68-9-15.21-1.3-1.73-9.93-14.86-13.28-13.32Q86.05,264.86,81.49,264.87ZM82.88,22v2.58q9.51,2.77,32.54,12.3,5.16-7.74,21.84-28.58h-25.8Q108.07,8.25,82.88,22Zm32.54,24.41q-6.73,8.13-6.74,9.52l28.58,66.49h1.38l-9.52-73.43A36.07,36.07,0,0,0,115.42,46.36Zm20.44,122.05-27.18,66.48q6.73,6,6.74,9.53,15.09-2.56,15.09-8.13l6.75-65.1v-2.78ZM121,39.41q14.88,2.39,14.88,10.92,6.75,48.83,6.75,63.9H144q6.74-70.65,10.92-70.65,10.71-2.78,10.72-5.36Q145.39,13.81,145.39,11H144Q143,11,121,39.41Zm21.63,135.75q-4.76,70.65-10.92,70.65Q121,248.6,121,251.17q10.72,9.33,21.63,27.19,23-24.81,23-29.77h-1.2q-15.08,0-15.08-28.58L144,175.16Zm-14.88-32.55v4.17q2.78,13.5,13.49,13.5h4.17q14.88,0,14.88-17.67,0-11.31-17.66-14.88Q127.73,132.29,127.73,142.61ZM157.5,48.94q-1.19,18.25-8.14,72v1.39h1.39q0-2.18,28.58-67.87-8-9.54-10.91-9.53C163.39,47.62,159.74,48.94,157.5,48.94ZM149.36,167q7.54,73.44,10.91,73.43,7.74,4,10.92,4l8.14-10.91q-28.59-63.7-28.58-66.49ZM150.75,8.25l21.83,28.58q22.42-9.52,32.55-12.3V22Q179.72,8.26,176.55,8.25Zm21.83,244.31-21.83,27.19,2.78,1.39h25.8q25.8-14.68,25.8-16.27Zm5.36-210.37q8.13,11.12,8.13,13.69Q180.33,67,158.89,118.2q38.3-51.79,43.46-55.57L215.85,64V62.63q-4-33.93-6.75-33.94Q178.14,41,177.94,42.19Zm-19.05,129v1.39q27.18,58.54,27.18,63.71-1.77,0-9.52,10.91,28.38,11.52,33.93,12.11,2.79-9.13,5.37-35.33h-1.2a10.74,10.74,0,0,1-5.55,1.39H201Q200,225.37,158.89,171.19ZM202.35,69.38q-2.39,5.16-42.08,58.35h1.4q57-41.88,57-44.85c-.53-8.07-1.47-12.11-2.78-12.11C214.78,70.77,210.29,70.31,202.35,69.38Zm-42.08,92.28Q197.4,209.9,202.35,220q16.28,0,16.28-9.52v-6.75l-57-42.08ZM167,137.25v1.39h1.4q72-7.14,72-10.91L243,118.2c-3.56-5.42-7.21-8.14-10.91-8.14Zm1.4,13.5v1.39l65.09,27.19q9.53-6.56,9.52-8.14,0-14.88-19.05-14.89-6.94,0-54.18-5.55ZM224,72.16l1.39,16.27q-52.78,39.3-55.57,39.3v1.38h2.78q43.66-20.43,62.32-27.18,8.13,8.13,12.3,9.53,10.73-28.59,10.72-33.94Zm-52.79,88.12q54.18,39.69,54.18,43.46,0,1.59-1.39,13.5,1.4-1.4,35.33-5.37L247.2,177.94h-1.39l-10.91,8.13h-1.39Zm77.4-37.91q-2.37,14.88-13.69,14.88L173.77,144v1.39q70.65,5.76,70.66,9.53l4.16,12.1Q273.39,149,277,144v-1.39q-2.78,0-27.19-20.24ZM217.23,30.08q4.17,36.53,9.53,36.52l31.16,4.17q-14.3-29-23-31.36Q233.9,39.41,217.23,30.08ZM222.8,224l-5.57,33.94h1.4q28.58-12.11,35.32-32.55l4-6.75h-1.19Q227.36,221.61,222.8,224Zm28.37-108.56Q272,132.3,279.75,137.25V111.46q0-3.37-13.69-28.58Q262.88,85.85,251.17,115.42Zm0,58.35q9.53,20,12.31,31.36h2.58q13.69-23.22,13.69-27.19v-25.8h-1.39Q277.37,152.14,251.17,173.77Z"/>
  </g>
</svg>
