<svg xmlns="http://www.w3.org/2000/svg" width="3.95in" height="1.1in" viewBox="0 0 284.59 79.1">
  <g id="Logo_Artwork" data-name="Logo Artwork">
    <path d="M37.38,2.44h14q2.1.47,18.2,10.12Q78.65,28,79.36,30.41V48.25q-.47,2.1-10.13,18.15-16.5,9.46-17.48,9.46H32.53Q15.6,66.4,14.68,64.66,5.93,49.18,5.94,48.25V30.05q0-1.28,10.12-17.84Q32.11,2.79,33.55,2.8A15.15,15.15,0,0,1,37.38,2.44ZM11.2,23.4q-3.52,6.29-3.52,7v7a78.86,78.86,0,0,0,7-5.62Q11.77,23.41,11.2,23.4ZM7.68,41.25v7.67q3.52,5.63,3.52,6.34h.31a91.64,91.64,0,0,0,3.17-8.75ZM8,39.51q.72,0,7.37,5.57h.3q0-4.19,4.55-4.19L35,39.51v-.36L17.8,37.41c-.78,0-1.48-1.28-2.1-3.83h-.3A82.81,82.81,0,0,0,8,39.51Zm4.91-17.13,3.12,8.39a18.26,18.26,0,0,1,3.53-2.46q8.28,3.84,16.05,7Q24.3,26.37,21.33,24.83L22,20.64C16,21.46,12.94,22,12.94,22.38Zm.47-2.14A28.24,28.24,0,0,0,20,19.3c.56-.13,2.24-.35,2.36-1.11q.72-4.35,1.07-8.08h-.35c-2.62,1.25-5.75,2.51-7.34,5.09C15,16.39,13.23,18.82,13.41,20.24ZM19.23,50l-3.17-2.1q-2.76,6.49-2.76,8.75A85.11,85.11,0,0,1,22,58l-.35-3.48v-.36Q21.84,53.57,35,43.7h-.36Q21.44,49.47,19.23,50ZM13.3,58.37c1.1,2.38,2.34,5,4.27,6.83A19.78,19.78,0,0,0,22.31,68c.92.47,1.18.57,1.15-.59,0-.78-.27-1.53-.36-2.3-.11-1-.23-1.91-.37-2.86A7.06,7.06,0,0,0,22,59.45ZM16.78,32.5Q17.59,36,20.25,36q1.89,0,16.11,1.79h.36v-.36A140.51,140.51,0,0,1,20,30.05,12.18,12.18,0,0,0,16.78,32.5Zm0,13.65c1.6,1.4,2.54,2.1,2.81,2.1l16.77-7v-.36H36q-18.19,1.74-18.2,2.45A12.31,12.31,0,0,1,16.78,46.15Zm6.29,8.75a16.56,16.56,0,0,1,.71,3.47h1l2.45.36Q29,56,38.46,43.7H38.1Q34.92,45.8,23.07,54.9Zm.35-31.14q0,.46,14.68,11.2h.36q-11.25-15-11.56-15c-2.32,0-3.48.69-3.48,2.09Zm1.74-14-1,8.74h.31L28,18.19q9.77,13,10.13,14h.36v-.36Q31.8,17.12,31.81,15.37c.31,0,1-.81,2.09-2.45v-.36C29,10.72,26.08,9.8,25.16,9.8ZM28,60.47a15.62,15.62,0,0,1-3.83-.72v.36l1,8.75h.36c.68,0,3.48-1,8.38-3.12l-2.09-3.17q0-.47,6.65-16.06Q37.94,46.66,28,60.47Zm-1.43,9.82v.3c2.05,1,4,2.21,6,3.35a3.66,3.66,0,0,0,1,.44,28.07,28.07,0,0,0,4,.17c.58,0,2.3.35,2.79-.08S38.53,71.2,38,70.55c-.33-.45-2.56-3.83-3.42-3.43Q27.72,70.29,26.54,70.29ZM26.9,7.71v.66c1.64.48,4.43,1.53,8.39,3.17q1.32-2,5.62-7.36H34.26C33.68,4.18,31.23,5.35,26.9,7.71ZM35.29,14a9.22,9.22,0,0,0-1.74,2.46l7.36,17.13h.36L38.81,14.66A9.31,9.31,0,0,0,35.29,14Zm5.26,31.45-7,17.13c1.16,1,1.74,1.84,1.74,2.45,2.59-.44,3.88-1.14,3.88-2.1l1.74-16.77v-.71ZM36.72,12.21q3.83.6,3.83,2.81a155.81,155.81,0,0,1,1.74,16.46h.36q1.74-18.19,2.81-18.2,2.76-.72,2.76-1.38Q43,5.62,43,4.89h-.36Q42.4,4.89,36.72,12.21Zm5.57,35q-1.23,18.2-2.81,18.2-2.76.72-2.76,1.38a30,30,0,0,1,5.57,7q5.93-6.39,5.93-7.66h-.31Q44,66.1,44,58.73L42.65,47.18Zm-3.83-8.39v1.08q.7,3.47,3.47,3.47H43c2.55,0,3.83-1.51,3.83-4.55q0-2.91-4.55-3.83C39.73,35.74,38.46,37,38.46,38.79Zm7.67-24.13q-.32,4.71-2.1,18.56v.36h.36q0-.57,7.36-17.49c-1.37-1.64-2.3-2.45-2.81-2.45A7.31,7.31,0,0,1,46.13,14.66ZM44,45.08Q46,64,46.84,64a7.65,7.65,0,0,0,2.81,1l2.1-2.81Q44.39,45.8,44.39,45.08Zm.36-40.9L50,11.54A75.94,75.94,0,0,1,58.4,8.37V7.71C54,5.35,51.58,4.18,51,4.18ZM50,67.12l-5.62,7,.71.36h6.65q6.64-3.78,6.65-4.19Zm1.38-54.2c1.4,1.91,2.1,3.09,2.1,3.53q-1.49,2.86-7,16.05,9.87-13.33,11.2-14.31l3.48.35v-.35q-1-8.75-1.74-8.75Q51.44,12.62,51.39,12.92ZM46.48,46.15v.36q7,15.09,7,16.41-.47,0-2.46,2.82c4.88,2,7.79,3,8.75,3.12a58.38,58.38,0,0,0,1.38-9.11h-.31a2.79,2.79,0,0,1-1.43.36h-2.1Q57.07,60.11,46.48,46.15Zm11.2-26.22q-.61,1.32-10.84,15h.36Q61.87,24.17,61.87,23.4c-.13-2.08-.37-3.12-.71-3.12S59.73,20.16,57.68,19.93ZM46.84,43.7q9.55,12.42,10.84,15,4.18,0,4.19-2.45V54.54L47.2,43.7Zm1.74-6.29v.36h.36Q67.5,35.92,67.5,35l.66-2.46c-.92-1.39-1.86-2.09-2.81-2.09Zm.36,3.48v.36l16.77,7c1.63-1.12,2.45-1.82,2.45-2.1,0-2.55-1.63-3.83-4.91-3.83q-1.78,0-14-1.43ZM63.25,20.64l.36,4.19Q50,35,49.3,35v.35H50q11.25-5.25,16.06-7a10.26,10.26,0,0,0,3.16,2.46Q72,23.41,72,22Zm-13.6,22.7q14,10.23,14,11.2,0,.41-.36,3.48c.24-.24,3.28-.7,9.1-1.38l-3.12-8.75h-.35L66.07,50h-.36Zm19.94-9.76c-.4,2.55-1.58,3.83-3.52,3.83L50.32,39.15v.36Q68.52,41,68.52,42l1.07,3.12q6.39-4.65,7.32-5.93v-.36q-.72,0-7-5.21ZM61.51,9.8q1.08,9.4,2.46,9.41l8,1.07c-2.46-5-4.43-7.67-5.93-8.07A44.67,44.67,0,0,1,61.51,9.8Zm1.44,50L61.51,68.5h.36q7.37-3.12,9.1-8.39l1-1.74h-.31Q64.12,59.15,63,59.75Zm7.31-28q5.37,4.34,7.36,5.62V30.77q0-.87-3.53-7.37Q73.28,24.17,70.26,31.79Zm0,15a47,47,0,0,1,3.17,8.08h.66c2.35-4,3.53-6.32,3.53-7V41.25h-.36Q77,41.25,70.26,46.82Z"/>
    <g>
      <path d="M96.51,58.16v5.2H88.59v-.71h1.14a5.42,5.42,0,0,0,3.43-1.17,4.86,4.86,0,0,0,1.78-3.32Zm3.78-45.71H101l1.43,4.2L98.22,63.36H94.37ZM98.58,59.3v.36a3.15,3.15,0,0,0,.82,2.1,2.49,2.49,0,0,0,2,1h1.07v.64H98.08V59.3ZM101,12.45l20.54,44.43-1.64,7.48L99.65,20.43Zm39.37,0,.57,4.77L123,57.09c-.72,1.62-1.26,3-1.64,4.1a18.33,18.33,0,0,0-.79,3.17h-.71l-1-4.49Zm.85,46.85h.5v4.06h-4.35v-.64h1.07a2.48,2.48,0,0,0,2-1,3.26,3.26,0,0,0,.78-2.1V59.3ZM141,12.45l6.13,50.91h-5.56l-3.92-43.21,2.71-7.7Zm4,45.71h1.5a5.18,5.18,0,0,0,1.85,3.32,5.33,5.33,0,0,0,3.36,1.17h1.14v.71H145Z"/>
      <path d="M166,58.16a3.62,3.62,0,0,0-.14,2.42A3,3,0,0,0,167,62.12a3.1,3.1,0,0,0,1.68.53h.64v.71H155v-.71h.64a6.67,6.67,0,0,0,3.39-1,7.61,7.61,0,0,0,2.88-3.46ZM181.3,12.45l.64,5L164,63.15h-4.28L178,19.79q.78-1.78,1.32-3.06c.36-.86.67-1.69.93-2.5a6.61,6.61,0,0,0,.39-1.78ZM191.36,43.9V46H169V43.9ZM181.3,12.45l21.11,50.49h-6.06L179.88,19.22Zm13.27,45.71h5.84a7.18,7.18,0,0,0,2.86,3.46,6.8,6.8,0,0,0,3.42,1h.57v.71h-16v-.71h.65a3.21,3.21,0,0,0,2.42-1.17C195,60.69,195.09,59.58,194.57,58.16Z"/>
      <path d="M218.24,18.65H218a4.24,4.24,0,0,0-1.36-3.17,4.43,4.43,0,0,0-3.21-1.32h-.85l-.07-.72h5.7Zm0,39.51v5.2h-5.7v-.71h.92a4.33,4.33,0,0,0,3.18-1.32A4.58,4.58,0,0,0,218,58.16Zm4.42-44.72V63.36H218V13.44Zm8.49,0A17.38,17.38,0,0,1,239,15.08a11.82,11.82,0,0,1,5.07,4.75,14.56,14.56,0,0,1,1.78,7.38,13,13,0,0,1-4.71,10.27,14.45,14.45,0,0,1-4.85,2.67,14.25,14.25,0,0,1-5.59.68,14.1,14.1,0,0,1-5.6-1.64v-.71a22.21,22.21,0,0,0,4.31.25,16.63,16.63,0,0,0,4-.79,10.33,10.33,0,0,0,3.92-2.39,10.54,10.54,0,0,0,2.74-4.78,13.41,13.41,0,0,0,.36-2,12,12,0,0,0,.07-2.31,12.29,12.29,0,0,0-2.56-7.92,8.68,8.68,0,0,0-7.06-3h-8.42c-.24-.71-.48-1.42-.71-2.14Zm-8.7,44.72h.21a4.58,4.58,0,0,0,1.39,3.17,4.33,4.33,0,0,0,3.18,1.32h.93v.71h-5.71Z"/>
      <path d="M269.09,12.45a21.74,21.74,0,0,1,2.46.14c.88.09,1.73.22,2.57.39s1.59.33,2.28.5A7.94,7.94,0,0,1,278,14v7.91h-.64A6.61,6.61,0,0,0,275,16.55a8.61,8.61,0,0,0-5.71-2A8.5,8.5,0,0,0,263,17.05a7.91,7.91,0,0,0-2.43,5.74,10.08,10.08,0,0,0,.61,3.17,8.4,8.4,0,0,0,2.24,3.39l14.05,13a10,10,0,0,1,2.86,4.28A14.93,14.93,0,0,1,281,51a13.23,13.23,0,0,1-3.6,9.62q-3.6,3.72-9.74,3.71a28,28,0,0,1-4-.35,20.11,20.11,0,0,1-4.49-1.25,10.91,10.91,0,0,1-3.6-2.32,16.13,16.13,0,0,1-.21-2.85,24.14,24.14,0,0,1,.28-3.6,21.51,21.51,0,0,1,.79-3.46H257a12,12,0,0,0,.92,6.35,9.07,9.07,0,0,0,3.75,4.1,10.21,10.21,0,0,0,5.6,1.24,10.63,10.63,0,0,0,6.74-2.74,8.73,8.73,0,0,0,2.81-6.81,9.6,9.6,0,0,0-.71-3.75A8.13,8.13,0,0,0,274.08,46l-13.69-12.7a11.11,11.11,0,0,1-3-4.38,13.31,13.31,0,0,1-.85-4.46A12.53,12.53,0,0,1,258,18.72a11.46,11.46,0,0,1,4.25-4.53A12.83,12.83,0,0,1,269.09,12.45Zm8.91.71v1.5h-5.42v-1.5Z"/>
    </g>
  </g>
</svg>
