<svg xmlns="http://www.w3.org/2000/svg" width="3.95in" height="1.1in" viewBox="0 0 284.59 79.1">
  <g id="Logo_Artwork" data-name="Logo Artwork">
    <path d="M34.13,2.7h14q2.09.46,18.2,10.13,9,15.37,9.76,17.84V48.51Q75.65,50.61,66,66.66,49.47,76.13,48.5,76.12H29.27Q12.35,66.67,11.43,64.93,2.68,49.44,2.68,48.51V30.31q0-1.27,10.13-17.84,16-9.41,17.48-9.41A15.24,15.24,0,0,1,34.13,2.7ZM8,23.66c-2.35,4.2-3.53,6.53-3.53,7v7a77.6,77.6,0,0,0,7-5.62Q8.52,23.67,8,23.66ZM4.42,41.51v7.67Q7.94,54.81,8,55.52h.31a91.64,91.64,0,0,0,3.17-8.75Zm.36-1.74q.72,0,7.36,5.57h.31q0-4.19,4.55-4.19l14.72-1.38v-.36L14.55,37.67c-.79,0-1.49-1.27-2.1-3.83h-.31A86,86,0,0,0,4.78,39.77ZM9.69,22.64,12.81,31a18.26,18.26,0,0,1,3.53-2.46q8.28,3.84,16.05,7Q21,26.63,18.07,25.1l.72-4.2Q9.69,22.13,9.69,22.64Zm.47-2.14a27.22,27.22,0,0,0,6.58-.94c.56-.13,2.23-.35,2.36-1.11q.7-4.35,1.07-8.08h-.36c-2.61,1.25-5.74,2.51-7.33,5.09C11.74,16.65,10,19.08,10.16,20.5ZM16,50.25l-3.17-2.09C11,52.48,10.05,55.4,10.05,56.9a85.68,85.68,0,0,1,8.74,1.38l-.36-3.48v-.36Q18.6,53.83,31.72,44h-.35Q18.17,49.75,16,50.25Zm-5.93,8.39c1.1,2.37,2.34,5,4.27,6.82a19.09,19.09,0,0,0,4.74,2.83c.92.47,1.18.57,1.14-.59,0-.77-.26-1.53-.35-2.3-.11-1-.23-1.91-.38-2.86a7.22,7.22,0,0,0-.68-2.83Zm3.47-25.88q.83,3.48,3.48,3.48,1.89,0,16.11,1.79h.35v-.36a140.51,140.51,0,0,1-16.77-7.36A12.52,12.52,0,0,0,13.52,32.76Zm0,13.66c1.61,1.4,2.54,2.09,2.82,2.09l16.77-7v-.36h-.36q-18.21,1.74-18.2,2.45A12.78,12.78,0,0,1,13.52,46.42Zm6.29,8.74a15.71,15.71,0,0,1,.72,3.48h1L24,59q1.74-2.76,11.2-15h-.36Q31.67,46.06,19.81,55.16ZM20.17,24q0,.46,14.67,11.2h.36q-11.25-15-11.55-15c-2.32,0-3.48.7-3.48,2.09Zm1.74-14-1,8.75h.3l3.53-.36q9.77,13,10.12,14h.36v-.36q-6.65-14.67-6.64-16.41c.3,0,1-.82,2.09-2.46v-.35Q23.28,10.06,21.91,10.06Zm2.81,50.67A15.7,15.7,0,0,1,20.89,60v.35l1,8.75h.36q1,0,8.38-3.12l-2.09-3.17q0-.46,6.64-16.06Q34.69,46.94,24.72,60.73Zm-1.43,9.82v.31c2.05,1,4,2.2,6,3.34a3.43,3.43,0,0,0,1,.44,28,28,0,0,0,4,.17c.58,0,2.3.35,2.79-.08s-1.82-3.27-2.31-3.92c-.34-.45-2.56-3.83-3.42-3.43C26.77,69.49,24.07,70.55,23.29,70.55ZM23.65,8v.66c1.63.48,4.43,1.54,8.38,3.17q1.34-2,5.63-7.36H31Q30.14,4.44,23.65,8ZM32,14.26a9.09,9.09,0,0,0-1.74,2.45l7.37,17.13H38L35.56,14.92A9.35,9.35,0,0,0,32,14.26ZM37.3,45.7l-7,17.13c1.16,1,1.74,1.84,1.74,2.45,2.59-.44,3.89-1.14,3.89-2.09l1.74-16.77V45.7ZM33.46,12.47c2.56.41,3.84,1.34,3.84,2.81A155.81,155.81,0,0,1,39,31.74h.36q1.73-18.19,2.81-18.2Q45,12.82,45,12.16q-5.22-6.28-5.22-7H39.4C39.22,5.16,37.25,7.59,33.46,12.47Zm5.58,35q-1.23,18.2-2.82,18.2-2.76.72-2.76,1.38A29.88,29.88,0,0,1,39,74Q45,67.64,45,66.36h-.31q-3.88,0-3.89-7.37L39.4,47.44ZM35.2,39.05v1.08c.48,2.32,1.64,3.47,3.48,3.47h1.07c2.56,0,3.84-1.51,3.84-4.55q0-2.91-4.55-3.83Q35.2,36.39,35.2,39.05Zm7.67-24.13q-.3,4.71-2.1,18.56v.36h.36q0-.57,7.37-17.49c-1.37-1.63-2.31-2.45-2.82-2.45A7.2,7.2,0,0,1,42.87,14.92Zm-2.1,30.42q1.95,18.93,2.82,18.92a7.6,7.6,0,0,0,2.81,1l2.1-2.81q-7.36-16.41-7.37-17.13Zm.36-40.9,5.63,7.36a78.15,78.15,0,0,1,8.38-3.17V8c-4.36-2.35-6.82-3.53-7.36-3.53Zm5.63,62.94-5.63,7,.72.36H48.5q6.64-3.78,6.64-4.19Zm1.38-54.2c1.39,1.91,2.09,3.09,2.09,3.53q-1.47,2.87-7,16,9.87-13.33,11.2-14.31l3.47.36v-.36q-1-8.75-1.73-8.74Q48.19,12.88,48.14,13.18ZM43.23,46.42v.35q7,15.09,7,16.42c-.3,0-1.12.93-2.45,2.81,4.87,2,7.79,3,8.74,3.12A55.8,55.8,0,0,0,57.9,60h-.3a2.78,2.78,0,0,1-1.43.35h-2.1Q53.82,60.37,43.23,46.42Zm11.2-26.23q-.61,1.32-10.84,15H44Q58.62,24.44,58.62,23.66c-.14-2.07-.38-3.11-.72-3.11S56.47,20.43,54.43,20.19ZM43.59,44Q53.15,56.4,54.43,59c2.79,0,4.19-.81,4.19-2.45V54.8L44,44Zm1.74-6.29V38h.35q18.57-1.85,18.56-2.81l.67-2.46c-.92-1.39-1.86-2.09-2.81-2.09Zm.35,3.48v.36l16.77,7c1.64-1.12,2.46-1.82,2.46-2.09q0-3.84-4.91-3.84-1.78,0-14-1.43ZM60,20.9l.36,4.2Q46.76,35.21,46,35.22v.36h.72q11.25-5.26,16.05-7A10.38,10.38,0,0,0,66,31q2.76-7.37,2.76-8.75ZM46.4,43.6q14,10.23,14,11.2,0,.41-.36,3.48.36-.36,9.1-1.38L66,48.16h-.36l-2.81,2.09h-.36Zm19.94-9.76c-.41,2.56-1.59,3.83-3.53,3.83L47.06,39.41v.36q18.21,1.48,18.21,2.45l1.07,3.12q6.39-4.65,7.31-5.93v-.36q-.72,0-7-5.21ZM58.26,10.06c.72,6.28,1.54,9.41,2.46,9.41l8,1.08q-3.67-7.47-5.93-8.08A44,44,0,0,1,58.26,10.06Zm1.43,50-1.43,8.74h.36q7.37-3.12,9.1-8.39l1-1.73h-.3C63.39,59.15,60.48,59.61,59.69,60Zm7.32-28q5.35,4.35,7.36,5.62V31q0-.87-3.53-7.37Q70,24.44,67,32.05Zm0,15a45.93,45.93,0,0,1,3.16,8.08h.67q3.52-6,3.53-7V41.51H74Q73.76,41.51,67,47.08Z" fill="#fff"/>
    <g>
      <path d="M93.26,58.42v5.21H85.34v-.72h1.14a5.39,5.39,0,0,0,3.42-1.17,4.85,4.85,0,0,0,1.79-3.32ZM97,12.71h.71l1.42,4.21L95,63.63H91.12ZM95.32,59.56v.36a3.2,3.2,0,0,0,.82,2.1,2.52,2.52,0,0,0,2,1h1.06v.64H94.82V59.56Zm2.43-46.85,20.54,44.43-1.64,7.49L96.39,20.7Zm39.36,0,.57,4.78-17.9,39.86c-.71,1.62-1.26,3-1.64,4.1a17.49,17.49,0,0,0-.78,3.18h-.71l-1-4.5ZM138,59.56h.5v4.07h-4.35V63h1.07a2.49,2.49,0,0,0,2-1,3.26,3.26,0,0,0,.78-2.1v-.36Zm-.21-46.85,6.13,50.92h-5.56L134.4,20.41l2.71-7.7Zm4,45.71h1.5a5.07,5.07,0,0,0,1.85,3.32,5.32,5.32,0,0,0,3.35,1.17h1.14v.72h-7.84Z" fill="#fff"/>
      <path d="M162.72,58.42a3.65,3.65,0,0,0-.15,2.43,3,3,0,0,0,1.18,1.53,3,3,0,0,0,1.68.53h.64v.72H151.73v-.72h.65a6.61,6.61,0,0,0,3.38-1,7.57,7.57,0,0,0,2.89-3.46Zm15.33-45.71.64,5-17.9,45.71h-4.28l18.26-43.36c.52-1.18,1-2.21,1.32-3.06s.66-1.69.92-2.5a6.34,6.34,0,0,0,.4-1.78Zm10,31.45V46.3H165.78V44.16Zm-10-31.45L199.16,63.2H193.1L176.62,19.48Zm13.26,45.71h5.85A7.11,7.11,0,0,0,200,61.88a6.83,6.83,0,0,0,3.43,1H204v.72H188v-.72h.64A3.23,3.23,0,0,0,191,61.74C191.74,61,191.84,59.85,191.31,58.42Z" fill="#fff"/>
      <path d="M215,18.91h-.22a4.28,4.28,0,0,0-1.35-3.17,4.43,4.43,0,0,0-3.21-1.32h-.85l-.08-.71H215Zm0,39.51v5.21h-5.71v-.72h.93a4.31,4.31,0,0,0,3.17-1.32,4.52,4.52,0,0,0,1.39-3.17Zm4.42-44.71V63.63h-4.64V13.71Zm8.49,0a17.28,17.28,0,0,1,7.84,1.64,11.66,11.66,0,0,1,5.06,4.74,14.56,14.56,0,0,1,1.79,7.38,13.1,13.1,0,0,1-4.71,10.27A14.55,14.55,0,0,1,233,40.41a14.3,14.3,0,0,1-5.6.68,14.1,14.1,0,0,1-5.59-1.64v-.71a21.45,21.45,0,0,0,4.31.25,15.56,15.56,0,0,0,4-.79,10.31,10.31,0,0,0,3.93-2.39A10.64,10.64,0,0,0,236.81,31a15.55,15.55,0,0,0,.36-2,12.94,12.94,0,0,0,.07-2.32,12.25,12.25,0,0,0-2.57-7.92,8.66,8.66,0,0,0-7.06-3H219.2l-.72-2.14Zm-8.7,44.71h.21a4.57,4.57,0,0,0,1.39,3.17A4.33,4.33,0,0,0,224,62.91h.93v.72h-5.7Z" fill="#fff"/>
      <path d="M265.84,12.71a24.35,24.35,0,0,1,2.46.14c.88.1,1.73.23,2.56.39s1.6.34,2.29.5a8.17,8.17,0,0,1,1.6.54v7.91h-.64a6.63,6.63,0,0,0-2.36-5.38,9.35,9.35,0,0,0-12.05.5,7.94,7.94,0,0,0-2.42,5.74,10.33,10.33,0,0,0,.6,3.17,8.53,8.53,0,0,0,2.25,3.39l14.05,13A9.89,9.89,0,0,1,277,46.87a14.63,14.63,0,0,1,.72,4.42,13.24,13.24,0,0,1-3.61,9.63q-3.6,3.7-9.73,3.71a26.7,26.7,0,0,1-4-.36A19.59,19.59,0,0,1,255.89,63a10.75,10.75,0,0,1-3.6-2.32,15.13,15.13,0,0,1-.22-2.85,24.2,24.2,0,0,1,.29-3.6,23,23,0,0,1,.78-3.46h.64a12.05,12.05,0,0,0,.93,6.35,9,9,0,0,0,3.75,4.1,10.2,10.2,0,0,0,5.59,1.25,10.68,10.68,0,0,0,6.74-2.75,8.7,8.7,0,0,0,2.82-6.81,9.52,9.52,0,0,0-.71-3.74,8.17,8.17,0,0,0-2.07-2.89L257.14,33.6a11.11,11.11,0,0,1-3-4.38,13.29,13.29,0,0,1-.86-4.46A12.54,12.54,0,0,1,254.71,19,11.41,11.41,0,0,1,259,14.46,12.8,12.8,0,0,1,265.84,12.71Zm8.91.71v1.5h-5.42v-1.5Z" fill="#fff"/>
    </g>
  </g>
</svg>
