<svg xmlns="http://www.w3.org/2000/svg" width="4in" height="0.87in" viewBox="0 0 288 62.61">
  <g id="Logo_Artwork" data-name="Logo Artwork">
    <path d="M27.74,3.82H38.19q1.58.33,13.59,7.55,6.75,11.49,7.28,13.32V38q-.35,1.56-7.55,13.55-12.33,7.05-13,7.05H24.11Q11.5,51.55,10.8,50.25,4.28,38.69,4.27,38V24.42q0-1,7.56-13.32,12-7,13.05-7A11.82,11.82,0,0,1,27.74,3.82ZM8.2,19.46q-2.62,4.7-2.63,5.23v5.22a57.41,57.41,0,0,0,5.23-4.19C9.35,21.54,8.48,19.46,8.2,19.46ZM5.57,32.77V38.5c1.76,2.8,2.63,4.37,2.63,4.73h.23A67.34,67.34,0,0,0,10.8,36.7Zm.27-1.29c.35,0,2.19,1.38,5.49,4.16h.23q0-3.14,3.4-3.13l11-1v-.27l-12.81-1.3c-.59,0-1.11-.95-1.57-2.86h-.23A62.61,62.61,0,0,0,5.84,31.48ZM9.5,18.7,11.83,25a13.85,13.85,0,0,1,2.63-1.83q6.18,2.86,12,5.23Q18,21.67,15.76,20.53l.53-3.13Q9.5,18.32,9.5,18.7Zm.35-1.6a20.43,20.43,0,0,0,4.91-.71c.42-.09,1.67-.26,1.76-.82q.54-3.24.8-6h-.26c-2,.93-4.29,1.87-5.48,3.8C11,14.23,9.72,16,9.85,17.1Zm4.34,22.2-2.36-1.57q-2.05,4.85-2.06,6.53a64.24,64.24,0,0,1,6.52,1L16,42.69v-.26q.11-.47,9.91-7.82h-.26Q15.84,38.91,14.19,39.3ZM9.77,45.56A16.33,16.33,0,0,0,13,50.65a14.49,14.49,0,0,0,3.53,2.11c.69.35.88.42.86-.44,0-.58-.2-1.14-.27-1.72s-.17-1.42-.28-2.13a5.08,5.08,0,0,0-.51-2.11Zm2.59-19.31c.41,1.73,1.27,2.59,2.6,2.59q1.41,0,12,1.34h.26v-.27a104.48,104.48,0,0,1-12.51-5.49A9.33,9.33,0,0,0,12.36,26.25Zm0,10.19A8,8,0,0,0,14.46,38L27,32.77v-.26h-.27Q13.12,33.8,13.13,34.34A9.43,9.43,0,0,1,12.36,36.44ZM17.06,43a12.65,12.65,0,0,1,.53,2.6h.76l1.83.26q1.3-2.05,8.36-11.21h-.27Q25.92,36.17,17.06,43Zm.26-23.23q0,.35,11,8.35h.27q-8.4-11.22-8.62-11.22c-1.73,0-2.6.53-2.6,1.57Zm1.3-10.42-.76,6.52h.23l2.63-.26Q28,25.26,28.27,26h.27v-.26q-5-10.95-5-12.25.34,0,1.56-1.83v-.27Q19.65,9.32,18.62,9.31Zm2.1,37.81a12.3,12.3,0,0,1-2.86-.53v.26l.76,6.53h.27q.76,0,6.25-2.33l-1.56-2.37q0-.33,5-12Q28.15,36.82,20.72,47.12Zm-1.07,7.33v.23c1.53.76,3,1.64,4.49,2.49a2.58,2.58,0,0,0,.74.33,21.18,21.18,0,0,0,3,.12c.44,0,1.72.27,2.09,0s-1.37-2.44-1.73-2.93c-.25-.33-1.91-2.85-2.55-2.56Q20.52,54.45,19.65,54.45Zm.27-46.7v.49q1.83.54,6.25,2.37,1-1.5,4.2-5.5h-5Q24.77,5.11,19.92,7.75Zm6.25,4.69a6.81,6.81,0,0,0-1.29,1.83l5.49,12.78h.27L28.81,12.93A7,7,0,0,0,26.17,12.44ZM30.1,35.9,24.88,48.68c.86.77,1.29,1.38,1.29,1.84,1.94-.33,2.9-.86,2.9-1.57l1.3-12.51V35.9ZM27.24,11.1c1.91.31,2.86,1,2.86,2.1a115.25,115.25,0,0,1,1.3,12.29h.27Q33,11.9,33.77,11.9c1.37-.35,2.06-.7,2.06-1C33.23,7.75,31.94,6,31.94,5.65h-.27A64.91,64.91,0,0,0,27.24,11.1ZM31.4,37.2q-.91,13.59-2.1,13.58c-1.37.36-2.06.7-2.06,1A22.37,22.37,0,0,1,31.4,57q4.43-4.77,4.43-5.72H35.6q-2.9,0-2.9-5.5l-1-8.62Zm-2.86-6.26v.8c.36,1.73,1.22,2.6,2.59,2.6h.81c1.9,0,2.86-1.13,2.86-3.4q0-2.18-3.4-2.86C29.49,28.67,28.54,29.62,28.54,30.94Zm5.72-18Q34,16.45,32.7,26.78v.27H33q0-.42,5.49-13-1.53-1.83-2.1-1.83A5.34,5.34,0,0,1,34.26,12.93ZM32.7,35.64c1,9.41,1.66,14.11,2.1,14.11a5.68,5.68,0,0,0,2.1.77l1.56-2.1Q33,36.17,33,35.64ZM33,5.11l4.19,5.5a58.61,58.61,0,0,1,6.26-2.37V7.75q-4.89-2.64-5.49-2.64Zm4.19,47L33,57.31l.53.26h5q5-2.82,5-3.12Zm1-40.44a8,8,0,0,1,1.57,2.63q-1.11,2.14-5.23,12,7.36-10,8.36-10.68l2.59.26v-.26Q44.72,9,44.18,9C40.22,10.62,38.22,11.48,38.19,11.64Zm-3.66,24.8v.26Q39.75,48,39.76,49q-.34,0-1.83,2.1a41.89,41.89,0,0,0,6.52,2.33,41.73,41.73,0,0,0,1-6.79h-.23a2.15,2.15,0,0,1-1.07.26H42.62Q42.43,46.85,34.53,36.44Zm8.36-19.58q-.47,1-8.09,11.22h.26Q46,20,46,19.46c-.11-1.55-.29-2.33-.54-2.33S44.41,17,42.89,16.86ZM34.8,34.61q7.13,9.27,8.09,11.21C45,45.82,46,45.21,46,44v-1.3l-11-8.08Zm1.29-4.7v.27h.27c9.23-.92,13.85-1.61,13.85-2.1l.5-1.83q-1-1.56-2.1-1.56Zm.27,2.6v.26L48.88,38q1.83-1.26,1.83-1.56,0-2.86-3.67-2.86-1.34,0-10.41-1.07ZM47,17.4l.27,3.13q-10.14,7.54-10.68,7.55v.27h.53q8.4-3.93,12-5.23A7.57,7.57,0,0,0,51.51,25q2.06-5.49,2.06-6.52ZM36.9,34.34Q47.31,42,47.31,42.69c0,.21-.09,1.07-.27,2.6q.27-.27,6.8-1l-2.33-6.53h-.27l-2.1,1.57h-.26Zm14.88-7.29c-.31,1.91-1.19,2.86-2.64,2.86l-11.75,1.3v.27Q51,32.59,51,33.31l.81,2.33c3.17-2.32,5-3.79,5.45-4.43v-.27c-.35,0-2.1-1.29-5.23-3.89Zm-6-17.74q.8,7,1.83,7l6,.8q-2.74-5.56-4.43-6A31.63,31.63,0,0,1,45.75,9.31Zm1.07,37.28-1.07,6.52H46q5.49-2.32,6.79-6.26l.76-1.29h-.23C49.58,45.94,47.4,46.28,46.82,46.59Zm5.45-20.87q4,3.24,5.5,4.19V25q0-.64-2.64-5.49C54.73,19.84,53.77,21.93,52.27,25.72Zm0,11.21a35,35,0,0,1,2.37,6h.49c1.76-3,2.64-4.72,2.64-5.23v-5H57.5Q57.3,32.77,52.27,36.93Z" fill="#fff"/>
    <g>
      <path d="M68.75,25.51v1.54H66.36v-.23h.34a1.67,1.67,0,0,0,1-.34,1.38,1.38,0,0,0,.52-1Zm1.31-12.58h.23l.46,1.36L69.33,27.05H68.06Zm-.62,12.92a1.2,1.2,0,0,0,.16.66.76.76,0,0,0,.69.33h.32v.21H69.3v-1.2Zm.85-12.92,6.26,12L76,27.37,69.86,15.46Zm11.94,0,.21,1.49L77.05,25c-.23.52-.4,1-.52,1.32a6.55,6.55,0,0,0-.28,1H76l-.32-1.45Zm.21,0,2.07,14.12H82.76l-1.5-11.57,1-2.55Zm.16,12.92h.16v1.2H81.42v-.21h.35a.75.75,0,0,0,.7-.34A1,1,0,0,0,82.6,25.85Zm1.22-.34h.46a1.41,1.41,0,0,0,.55,1,1.66,1.66,0,0,0,1,.34h.35v.23H83.82Z" fill="#fff"/>
      <path d="M88.39,13.25v1.22h0a1,1,0,0,0-.34-.7,1.08,1.08,0,0,0-.77-.29H86.9v-.23Zm1.43,0v8.69A5.12,5.12,0,0,0,91,25.46a3.94,3.94,0,0,0,3.11,1.29,4.68,4.68,0,0,0,3.44-1.22,4.41,4.41,0,0,0,1.26-3.33V13.25h1v9A4.86,4.86,0,0,1,98.29,26a6,6,0,0,1-4.19,1.39A6.09,6.09,0,0,1,89.9,26a4.79,4.79,0,0,1-1.55-3.77v-9Zm1.45,0v.23h-.35a1.17,1.17,0,0,0-.77.29.89.89,0,0,0-.33.7h0V13.25Zm7.54,0v1.22h0a.89.89,0,0,0-.33-.7,1.12,1.12,0,0,0-.78-.29h-.34v-.23Zm2.46,0v.23h-.34a1.11,1.11,0,0,0-.76.29,1,1,0,0,0-.35.7h0V13.25Z" fill="#fff"/>
      <path d="M107.18,12.93c.43,0,.81,0,1.13,0l.84.11a3.84,3.84,0,0,1,.62.14l.47.15,0,2.27H110a1.82,1.82,0,0,0-.64-1.48,3.08,3.08,0,0,0-2-.54,3.12,3.12,0,0,0-2,.63,1.81,1.81,0,0,0-.79,1.55,2.13,2.13,0,0,0,.08.61,1.93,1.93,0,0,0,.27.61,2.92,2.92,0,0,0,.54.6l4.65,3.59a2.61,2.61,0,0,1,.78,1.11,4.4,4.4,0,0,1,.28,1.35,3.23,3.23,0,0,1-.53,1.86,4,4,0,0,1-1.49,1.35,4.28,4.28,0,0,1-2,.49,10.66,10.66,0,0,1-1.44-.11,7.58,7.58,0,0,1-1.44-.36,3.5,3.5,0,0,1-1.1-.61,3.73,3.73,0,0,1-.07-.82,6.48,6.48,0,0,1,.08-1,5.18,5.18,0,0,1,.22-1h.27a3.13,3.13,0,0,0,.3,1.77,2.65,2.65,0,0,0,1.15,1.12,3.72,3.72,0,0,0,1.77.35A3.59,3.59,0,0,0,109.1,26a2.22,2.22,0,0,0,.82-1.81,2.26,2.26,0,0,0-.83-1.84l-4.6-3.54a2.77,2.77,0,0,1-.87-1.22,3.92,3.92,0,0,1-.23-1.26,3,3,0,0,1,.51-1.71,3.61,3.61,0,0,1,1.36-1.2A4.12,4.12,0,0,1,107.18,12.93Zm3,.21,0,.41h-1.63v-.41Z" fill="#fff"/>
      <path d="M115.12,14.72h-.05a1.18,1.18,0,0,0-.41-.88,1.37,1.37,0,0,0-1-.36h-.27v-.23h1.7Zm0,10.86.3,1.47h-2v-.23h.32a1.25,1.25,0,0,0,.94-.37,1.21,1.21,0,0,0,.39-.87Zm1.42-12.33v13.8h-1.47V13.25Zm-.06,1.47V13.25h1.7v.23h-.28a1.37,1.37,0,0,0-1,.36,1.12,1.12,0,0,0-.41.88Zm6.25,11.62,0,.71H116.5v-.71ZM124,23.76l-1.27,3.29h-3.49l.78-.71a4.22,4.22,0,0,0,1.85-.34,3,3,0,0,0,1.14-.92,7,7,0,0,0,.76-1.32Z" fill="#fff"/>
      <path d="M126.87,14.72h-.07a1.12,1.12,0,0,0-.47-.88,1.68,1.68,0,0,0-1.09-.36h-.32v-.23h2Zm0,10.86v1.47h-2v-.23h.32a1.64,1.64,0,0,0,1.09-.37,1.13,1.13,0,0,0,.47-.87Zm1.38-12.33v13.8H126.8V13.25Zm-.07,1.47V13.25h2l0,.23h-.3a1.71,1.71,0,0,0-1.1.36,1.15,1.15,0,0,0-.47.88Zm0,10.86h.07a1.16,1.16,0,0,0,.47.87,1.66,1.66,0,0,0,1.1.37h.3l0,.23h-2Z" fill="#fff"/>
      <path d="M133.68,25.51v1.54h-2.39v-.23h.34a1.67,1.67,0,0,0,1.05-.34,1.38,1.38,0,0,0,.52-1ZM135,12.93h.23l.46,1.36-1.43,12.76H133Zm-.62,12.92a1.12,1.12,0,0,0,.16.66.75.75,0,0,0,.69.33h.32v.21h-1.31v-1.2Zm.85-12.92,6.26,12L141,27.37l-6.17-11.91Zm11.94,0,.21,1.49L142,25c-.23.52-.4,1-.53,1.32a7.77,7.77,0,0,0-.27,1H141l-.32-1.45Zm.21,0,2.07,14.12h-1.75l-1.5-11.57,1-2.55Zm.16,12.92h.16v1.2h-1.34v-.21h.35a.76.76,0,0,0,.7-.34A1.09,1.09,0,0,0,147.53,25.85Zm1.22-.34h.46a1.41,1.41,0,0,0,.55,1,1.66,1.66,0,0,0,1,.34h.35v.23h-2.39Z" fill="#fff"/>
      <path d="M159.79,25.37a1,1,0,0,0,.06,1.07,1,1,0,0,0,.74.38h.18v.23h-4.39v-.23h.18a1.77,1.77,0,0,0,1-.33,2.73,2.73,0,0,0,.88-1.12Zm4.43-12.44.17,1.59L159.12,27h-1.45l5.45-11.68.43-1c.11-.27.21-.53.31-.79a3.33,3.33,0,0,0,.16-.62Zm2.72,8.76v.69h-6.1v-.69Zm-2.72-8.76,6.33,14h-1.82L163.83,15Zm3.89,12.44h1.75a2.54,2.54,0,0,0,.85,1.12,1.79,1.79,0,0,0,1,.33h.18v.23h-4.71v-.23h.18a.93.93,0,0,0,.71-.38A1,1,0,0,0,168.11,25.37Z" fill="#fff"/>
      <path d="M174,25.51v1.54h-2.39v-.23H172a1.63,1.63,0,0,0,1-.34,1.34,1.34,0,0,0,.52-1Zm1.32-12.58h.23l.46,1.36-1.43,12.76h-1.27Zm-.63,12.92a1.13,1.13,0,0,0,.17.66.75.75,0,0,0,.69.33h.32v.21H174.6v-1.2Zm.86-12.92,6.25,12-.53,2.41-6.16-11.91Zm11.93,0,.21,1.49L182.35,25c-.23.52-.41,1-.53,1.32a7.89,7.89,0,0,0-.28,1h-.23L181,25.92Zm.21,0,2.07,14.12h-1.75l-1.49-11.57,1-2.55Zm.16,12.92h.16v1.2h-1.33v-.21h.34a.74.74,0,0,0,.7-.34A1,1,0,0,0,187.89,25.85Zm1.22-.34h.46a1.41,1.41,0,0,0,.55,1,1.68,1.68,0,0,0,1,.34h.34v.23h-2.39Z" fill="#fff"/>
      <path d="M194.35,14.7h0a1.26,1.26,0,0,0-.39-.87,1.34,1.34,0,0,0-.95-.35h-.32v-.23h2Zm0,10.88.3,1.47h-2v-.23H193a1.27,1.27,0,0,0,.95-.37,1.3,1.3,0,0,0,.39-.87Zm1.43-12.33v13.8h-1.47V13.25Zm6.16,0V14h-6.21v-.71Zm-1.05,6.56v.69h-5.16v-.69ZM202,26.34l-.05.71h-6.19v-.71Zm1.28-2.58L202,27.05h-3.5l.79-.71a4.25,4.25,0,0,0,1.85-.34,3.12,3.12,0,0,0,1.14-.92,6.48,6.48,0,0,0,.75-1.32Zm-1.31-10.88v.6l-2.62-.23a9.18,9.18,0,0,0,1.52-.13A5.56,5.56,0,0,0,201.94,12.88Zm-1.05,5.66v1.31h-1.2v0a.86.86,0,0,0,.71-.29,1,1,0,0,0,.23-.68v-.3Zm0,1.91v1.31h-.26v-.3a1,1,0,0,0-.23-.68.85.85,0,0,0-.71-.28v-.05Zm1.05-6.56v1.59h-.25v-.34a1.17,1.17,0,0,0-.31-.83,1.09,1.09,0,0,0-.84-.35v-.07Z" fill="#fff"/>
      <path d="M206.38,14.7h0a1.26,1.26,0,0,0-.39-.87,1.32,1.32,0,0,0-.92-.35h-.33v-.23h2Zm0,10.88.28,1.47h-2v-.23H205a1.25,1.25,0,0,0,.92-.37,1.3,1.3,0,0,0,.39-.87Zm1.41-12.33v13.8h-1.48V13.25Zm-.07,12.33h.07a1.3,1.3,0,0,0,1.31,1.24h.3l0,.23h-2Zm2.76-12.33a6.81,6.81,0,0,1,1.94.25,4.23,4.23,0,0,1,1.47.74,3.1,3.1,0,0,1,.93,1.17,3.58,3.58,0,0,1,.33,1.57,3.7,3.7,0,0,1-.46,1.79,4,4,0,0,1-1.28,1.36,4.3,4.3,0,0,1-1.85.64,3.09,3.09,0,0,1,.91.71,9.15,9.15,0,0,1,.88,1.09c.4.53.76,1,1.07,1.39s.63.76.93,1.11.62.66.89.92a3.13,3.13,0,0,0,.87.61,2.53,2.53,0,0,0,1.09.22v.23h-.71a5.83,5.83,0,0,1-2.08-.32,4.11,4.11,0,0,1-1.32-.8,10.47,10.47,0,0,1-.88-.9l-.42-.59-.73-1-.71-1-.39-.54a6,6,0,0,0-1.06-1.07,2,2,0,0,0-1.26-.48V20.1c.49,0,.92,0,1.31,0s.86-.05,1.29-.1a2.56,2.56,0,0,0,1.2-.49,2.76,2.76,0,0,0,.89-1.38,3,3,0,0,0,.14-.6,4.18,4.18,0,0,0,0-.71,3.35,3.35,0,0,0-.24-1.15,2.6,2.6,0,0,0-.62-.88,2.88,2.88,0,0,0-1-.57,3.7,3.7,0,0,0-1.24-.23q-1.08,0-1.89,0a4,4,0,0,1-.8,0,1.38,1.38,0,0,0-.06-.19c0-.12-.09-.29-.17-.52Z" fill="#fff"/>
      <path d="M220.8,14.72h-.07a1.12,1.12,0,0,0-.47-.88,1.68,1.68,0,0,0-1.09-.36h-.32v-.23h2Zm0,10.86v1.47h-2v-.23h.32a1.64,1.64,0,0,0,1.09-.37,1.13,1.13,0,0,0,.47-.87Zm1.38-12.33v13.8h-1.45V13.25Zm-.07,1.47V13.25h2l0,.23h-.3a1.71,1.71,0,0,0-1.1.36,1.18,1.18,0,0,0-.47.88Zm0,10.86h.07a1.2,1.2,0,0,0,.47.87,1.66,1.66,0,0,0,1.1.37h.3l0,.23h-2Z" fill="#fff"/>
      <path d="M240,21.25l-.25,3.16A5.62,5.62,0,0,1,238.19,26,7.43,7.43,0,0,1,236,27a9.51,9.51,0,0,1-2.58.35,9,9,0,0,1-4-.89A6.27,6.27,0,0,1,226.76,24a7.63,7.63,0,0,1-.92-3.84,7.68,7.68,0,0,1,.92-3.86,6.21,6.21,0,0,1,2.63-2.49,8.84,8.84,0,0,1,4-.87,11.5,11.5,0,0,1,2.88.37,8.62,8.62,0,0,1,2.5,1l.51,3.24h-.21a4.56,4.56,0,0,0-2-3,7,7,0,0,0-3.67-.92,6,6,0,0,0-3.14.79,5.3,5.3,0,0,0-2.05,2.26,7.77,7.77,0,0,0-.72,3.48,7.68,7.68,0,0,0,.72,3.44,5.29,5.29,0,0,0,2.06,2.25,6.25,6.25,0,0,0,3.15.82,8.38,8.38,0,0,0,3.12-.56,5.24,5.24,0,0,0,2.26-1.76,5.7,5.7,0,0,0,1-3.09Z" fill="#fff"/>
      <path d="M243.92,25.37a1,1,0,0,0,.07,1.07,1,1,0,0,0,.73.38h.19v.23h-4.4v-.23h.19a1.82,1.82,0,0,0,1-.33,2.72,2.72,0,0,0,.87-1.12Zm4.44-12.44.16,1.59L243.25,27H241.8l5.45-11.68.43-1c.11-.27.22-.53.31-.79a3.33,3.33,0,0,0,.16-.62Zm2.71,8.76v.69H245v-.69Zm-2.71-8.76,6.32,14h-1.81L248,15Zm3.88,12.44H254a2.61,2.61,0,0,0,.85,1.12,1.79,1.79,0,0,0,1,.33H256v.23h-4.71v-.23h.18a1,1,0,0,0,.72-.38A1,1,0,0,0,252.24,25.37Z" fill="#fff"/>
      <path d="M258.13,25.62v1.43h-1.72v-.23h.39a1.24,1.24,0,0,0,.89-.34,1.12,1.12,0,0,0,.37-.86Zm0-12.71,1,1.28,0,12.86h-1V15.78a26,26,0,0,0-.2-2.87Zm0,0,12.74,12,.23,2.46L258.32,15.3Zm1,12.71a1.1,1.1,0,0,0,.38.86,1.26,1.26,0,0,0,.88.34h.39v.23H259V25.62Zm10.95-10.94a1.23,1.23,0,0,0-.39-.85,1.29,1.29,0,0,0-.9-.35h-.39v-.23h1.72v1.43Zm1-1.43V24.43c0,.49,0,1,0,1.41s.09,1,.17,1.53h-.21l-1-1.22V13.25ZM271,14.68V13.25h1.72v.23h-.39a1.27,1.27,0,0,0-.88.35,1.08,1.08,0,0,0-.38.85Z" fill="#fff"/>
      <path d="M278.62,12.93c.43,0,.81,0,1.13,0l.84.11a3.84,3.84,0,0,1,.62.14l.47.15,0,2.27h-.28a1.82,1.82,0,0,0-.64-1.48,3.08,3.08,0,0,0-2-.54,3.12,3.12,0,0,0-2,.63A1.81,1.81,0,0,0,276,15.8a2.13,2.13,0,0,0,.08.61,1.93,1.93,0,0,0,.27.61,2.92,2.92,0,0,0,.54.6l4.65,3.59a2.61,2.61,0,0,1,.78,1.11,4.4,4.4,0,0,1,.28,1.35,3.23,3.23,0,0,1-.53,1.86,3.89,3.89,0,0,1-1.49,1.35,4.28,4.28,0,0,1-2.05.49,10.66,10.66,0,0,1-1.44-.11,7.58,7.58,0,0,1-1.44-.36,3.5,3.5,0,0,1-1.1-.61,3.73,3.73,0,0,1-.07-.82,6.48,6.48,0,0,1,.08-1,5.18,5.18,0,0,1,.22-1h.27a3.13,3.13,0,0,0,.3,1.77,2.65,2.65,0,0,0,1.15,1.12,3.72,3.72,0,0,0,1.77.35,3.64,3.64,0,0,0,2.25-.72,2.24,2.24,0,0,0,.81-1.81,2.26,2.26,0,0,0-.83-1.84l-4.6-3.54a2.77,2.77,0,0,1-.87-1.22,3.92,3.92,0,0,1-.23-1.26,3,3,0,0,1,.51-1.71,3.61,3.61,0,0,1,1.36-1.2A4.12,4.12,0,0,1,278.62,12.93Zm3,.21,0,.41h-1.63v-.41Z" fill="#fff"/>
      <path d="M69.4,35.52h-.07a1.16,1.16,0,0,0-.48-.88,1.66,1.66,0,0,0-1.09-.36h-.32v-.23h2Zm0,10.86v1.47h-2v-.23h.32a1.62,1.62,0,0,0,1.09-.37,1.19,1.19,0,0,0,.48-.87Zm1.38-12.33v13.8H69.33V34.05Zm-.07,1.47V34.05h2l0,.23h-.3a1.68,1.68,0,0,0-1.09.36,1.12,1.12,0,0,0-.47.88Zm0,10.86h.07a1.15,1.15,0,0,0,.47.87,1.64,1.64,0,0,0,1.09.37h.3l0,.23h-2Z" fill="#fff"/>
      <path d="M76.16,46.42v1.43H74.43v-.23h.39a1.25,1.25,0,0,0,.9-.35,1.1,1.1,0,0,0,.37-.85Zm0-12.72,1,1.29,0,12.86h-1V36.58a24.3,24.3,0,0,0-.21-2.88Zm0,0,12.74,12,.23,2.46L76.34,36.1Zm1,12.72a1.11,1.11,0,0,0,.38.85,1.3,1.3,0,0,0,.89.35h.39v.23H77.05V46.42ZM88.07,35.48a1.18,1.18,0,0,0-.39-.86,1.25,1.25,0,0,0-.9-.34h-.39v-.23h1.73v1.43Zm1-1.43V45.23c0,.49,0,1,0,1.41s.08,1,.16,1.53h-.21l-1-1.22V34.05ZM89,35.48V34.05h1.73v.23h-.39a1.29,1.29,0,0,0-.89.34,1.13,1.13,0,0,0-.38.86Z" fill="#fff"/>
      <path d="M99.71,35.5h0a1.21,1.21,0,0,0-.4-.88,1.32,1.32,0,0,0-.93-.34H98v-.23h2Zm0,10.88.3,1.47H98v-.23h.32a1.26,1.26,0,0,0,.93-.37,1.24,1.24,0,0,0,.4-.87Zm1.43-12.33v13.8H99.66V34.05Zm-.07,12.33h0a1.32,1.32,0,0,0,1.34,1.24h.32v.23h-2Zm2.32-12.33a7.52,7.52,0,0,1,2.78.47A4.11,4.11,0,0,1,108,35.88a3.47,3.47,0,0,1,.64,2.1,4.16,4.16,0,0,1-.58,2.25,3.88,3.88,0,0,1-1.56,1.42,4.46,4.46,0,0,1-2.14.48,5.32,5.32,0,0,1-2.34-.58v-.23a6.9,6.9,0,0,0,1.36.12,4.52,4.52,0,0,0,1.26-.2,3.09,3.09,0,0,0,1.25-.73,3.5,3.5,0,0,0,.94-1.52,2.27,2.27,0,0,0,.12-.59,5,5,0,0,0,0-.65,2.72,2.72,0,0,0-1-2.21,4.07,4.07,0,0,0-2.67-.8h-2.25c-.08-.23-.16-.46-.25-.69Z" fill="#fff"/>
      <path d="M111.6,34.05v1.22h0a1,1,0,0,0-.33-.7,1.1,1.1,0,0,0-.77-.29h-.35v-.23Zm1.43,0v8.69a5.17,5.17,0,0,0,1.13,3.52,4,4,0,0,0,3.12,1.29,4.74,4.74,0,0,0,3.44-1.22A4.4,4.4,0,0,0,122,43v-9H123v9a4.86,4.86,0,0,1-1.53,3.78,6,6,0,0,1-4.2,1.39,6.07,6.07,0,0,1-4.19-1.38A4.78,4.78,0,0,1,111.55,43v-9Zm1.45,0v.23h-.35a1.15,1.15,0,0,0-.77.29.89.89,0,0,0-.33.7h0V34.05Zm7.54,0v1.22h0a.88.88,0,0,0-.32-.7,1.12,1.12,0,0,0-.78-.29h-.35v-.23Zm2.46,0v.23h-.34a1.09,1.09,0,0,0-.76.29,1,1,0,0,0-.35.7h0V34.05Z" fill="#fff"/>
      <path d="M128,35.52h-.07a1.26,1.26,0,0,0-.4-.9,1.41,1.41,0,0,0-1-.34h-.28v-.23H128Zm0,10.86v1.47h-1.73v-.23h.28a1.34,1.34,0,0,0,1-.37,1.29,1.29,0,0,0,.4-.87Zm1.38-12.33v13.8h-1.45V34.05Zm1.59,0a11.42,11.42,0,0,1,1.43.11,5.85,5.85,0,0,1,1.58.46,3.17,3.17,0,0,1,1.26,1,3,3,0,0,1,.51,1.84,2.39,2.39,0,0,1-.37,1.29,3.32,3.32,0,0,1-.94,1,3.64,3.64,0,0,1-1.22.56,4.91,4.91,0,0,1,2,.63,4.27,4.27,0,0,1,1.37,1.3,3.08,3.08,0,0,1,.5,1.71,3.29,3.29,0,0,1-1.7,3,5.48,5.48,0,0,1-1.65.63,9,9,0,0,1-1.75.18h-2.81c0-.23,0-.46,0-.69H132a4.64,4.64,0,0,0,1.79-.33,2.79,2.79,0,0,0,1.25-1,3.22,3.22,0,0,0,.46-1.79A3.06,3.06,0,0,0,135,42.2a3.14,3.14,0,0,0-1.27-1,5.82,5.82,0,0,0-1.72-.48,13.34,13.34,0,0,0-1.89-.13v-.23a10.76,10.76,0,0,0,1.34-.09,4.47,4.47,0,0,0,1.32-.38,2.56,2.56,0,0,0,1-.85,2.62,2.62,0,0,0,.39-1.51,2.46,2.46,0,0,0-.85-2.1,3.75,3.75,0,0,0-2.35-.66h-2.5a1.29,1.29,0,0,0-.06-.2c0-.11-.09-.28-.15-.49Z" fill="#fff"/>
      <path d="M140.81,35.52h-.05a1.18,1.18,0,0,0-.41-.88,1.37,1.37,0,0,0-1-.36h-.27v-.23h1.7Zm0,10.86.3,1.47h-2v-.23h.32a1.25,1.25,0,0,0,.94-.37,1.23,1.23,0,0,0,.39-.87Zm1.43-12.33v13.8h-1.48V34.05Zm-.07,1.47V34.05h1.7v.23h-.28a1.37,1.37,0,0,0-1,.36,1.11,1.11,0,0,0-.4.88Zm6.25,11.62,0,.71h-6.19v-.71Zm1.29-2.58-1.26,3.29H145l.78-.71a4.19,4.19,0,0,0,1.85-.34,3,3,0,0,0,1.14-.92,6.51,6.51,0,0,0,.76-1.32Z" fill="#fff"/>
      <path d="M152.56,35.52h-.07a1.12,1.12,0,0,0-.47-.88,1.68,1.68,0,0,0-1.09-.36h-.32v-.23h1.95Zm0,10.86v1.47h-1.95v-.23h.32a1.64,1.64,0,0,0,1.09-.37,1.15,1.15,0,0,0,.47-.87Zm1.38-12.33v13.8h-1.45V34.05Zm-.07,1.47V34.05h2l0,.23h-.3a1.71,1.71,0,0,0-1.1.36,1.18,1.18,0,0,0-.47.88Zm0,10.86h.07a1.21,1.21,0,0,0,.47.87,1.66,1.66,0,0,0,1.1.37h.3l0,.23h-2Z" fill="#fff"/>
      <path d="M171.77,42.05l-.26,3.15A5.49,5.49,0,0,1,170,46.79a7.17,7.17,0,0,1-2.18,1,9.14,9.14,0,0,1-2.58.36,8.85,8.85,0,0,1-4-.9,6.18,6.18,0,0,1-2.63-2.48A7.63,7.63,0,0,1,157.6,41a7.68,7.68,0,0,1,.92-3.86,6.15,6.15,0,0,1,2.63-2.49,8.84,8.84,0,0,1,4-.87,11.36,11.36,0,0,1,2.87.37,8.57,8.57,0,0,1,2.51,1l.51,3.24h-.21a4.6,4.6,0,0,0-2-3,7,7,0,0,0-3.67-.92,6,6,0,0,0-3.14.79A5.3,5.3,0,0,0,160,37.47a8.67,8.67,0,0,0,0,6.92A5.29,5.29,0,0,0,162,46.64a6.25,6.25,0,0,0,3.15.82,8.38,8.38,0,0,0,3.12-.56,5.24,5.24,0,0,0,2.26-1.76,5.78,5.78,0,0,0,1-3.09Z" fill="#fff"/>
      <path d="M183.24,33.73c.43,0,.81,0,1.13,0s.6.07.84.11a3.84,3.84,0,0,1,.62.14l.47.14,0,2.28h-.28a1.82,1.82,0,0,0-.64-1.48,3.08,3.08,0,0,0-2-.54,3.12,3.12,0,0,0-2,.63,1.81,1.81,0,0,0-.79,1.55,2.18,2.18,0,0,0,.08.61,1.93,1.93,0,0,0,.27.61,2.92,2.92,0,0,0,.54.6L186.19,42a2.61,2.61,0,0,1,.78,1.11,4.4,4.4,0,0,1,.28,1.35,3.25,3.25,0,0,1-.53,1.86,4,4,0,0,1-1.49,1.35,4.28,4.28,0,0,1-2,.49,10.66,10.66,0,0,1-1.44-.11,7.58,7.58,0,0,1-1.44-.36,3.5,3.5,0,0,1-1.1-.61,3.73,3.73,0,0,1-.07-.82,6.39,6.39,0,0,1,.08-1,5.18,5.18,0,0,1,.22-1h.27A3.13,3.13,0,0,0,180,46a2.57,2.57,0,0,0,1.15,1.11,3.6,3.6,0,0,0,1.77.36,3.64,3.64,0,0,0,2.25-.72A2.24,2.24,0,0,0,186,45a2.26,2.26,0,0,0-.83-1.84l-4.6-3.54a2.77,2.77,0,0,1-.87-1.22,4,4,0,0,1-.23-1.26,3,3,0,0,1,.51-1.71,3.61,3.61,0,0,1,1.36-1.2A4.12,4.12,0,0,1,183.24,33.73Zm3,.2,0,.42h-1.63v-.42Z" fill="#fff"/>
      <path d="M191.18,35.5h-.05a1.2,1.2,0,0,0-.39-.88,1.31,1.31,0,0,0-.94-.34h-.32v-.23h2Zm0,10.88.3,1.47h-2v-.23h.32a1.25,1.25,0,0,0,.94-.37,1.23,1.23,0,0,0,.39-.87Zm1.43-12.33v13.8h-1.48V34.05Zm6.16,0v.71h-6.21v-.71Zm-1.06,6.55v.69h-5.15V40.6Zm1.08,6.54,0,.71h-6.19v-.71Zm1.29-2.58-1.26,3.29h-3.5l.78-.71A4.22,4.22,0,0,0,198,46.8a3,3,0,0,0,1.14-.92,6.51,6.51,0,0,0,.76-1.32Zm-1.31-10.88v.6l-2.62-.23a9.27,9.27,0,0,0,1.52-.13A5.74,5.74,0,0,0,198.77,33.68Zm-1.06,5.66v1.31h-1.19v0a.86.86,0,0,0,.71-.28,1.07,1.07,0,0,0,.23-.68v-.3Zm0,1.91v1.31h-.25v-.3a1.07,1.07,0,0,0-.23-.68.87.87,0,0,0-.71-.29v0Zm1.06-6.56v1.59h-.25v-.34a1.22,1.22,0,0,0-.31-.83,1.09,1.09,0,0,0-.84-.35v-.07Z" fill="#fff"/>
      <path d="M203.21,35.5h-.05a1.2,1.2,0,0,0-.39-.88,1.28,1.28,0,0,0-.92-.34h-.32v-.23h1.95Zm0,10.88.27,1.47h-1.95v-.23h.32a1.3,1.3,0,0,0,1.31-1.24Zm1.4-12.33v13.8h-1.47V34.05Zm-.07,12.33h.07a1.32,1.32,0,0,0,.39.87,1.24,1.24,0,0,0,.92.37h.3l0,.23h-2Zm2.76-12.33a6.93,6.93,0,0,1,1.95.25,4.42,4.42,0,0,1,1.47.74,3.31,3.31,0,0,1,.93,1.17,3.73,3.73,0,0,1,.32,1.57,3.59,3.59,0,0,1-.46,1.79,3.87,3.87,0,0,1-1.28,1.36,4.25,4.25,0,0,1-1.85.64,3,3,0,0,1,.91.71,10.12,10.12,0,0,1,.89,1.08c.4.54.75,1,1.07,1.4s.62.76.93,1.11.62.66.88.92a3,3,0,0,0,.88.61,2.5,2.5,0,0,0,1.09.22v.23h-.71a5.79,5.79,0,0,1-2.08-.32,4.16,4.16,0,0,1-1.33-.8,10.27,10.27,0,0,1-.87-.9l-.43-.59-.72-1-.71-1c-.22-.3-.35-.48-.39-.55a6.7,6.7,0,0,0-1.06-1.07,2,2,0,0,0-1.27-.47V40.9c.49,0,.93,0,1.31,0s.86,0,1.29-.1a2.59,2.59,0,0,0,1.21-.49,2.75,2.75,0,0,0,.88-1.38,2.41,2.41,0,0,0,.14-.6,3.43,3.43,0,0,0,0-.72,3,3,0,0,0-.24-1.15,2.53,2.53,0,0,0-.62-.87,2.83,2.83,0,0,0-.95-.57,3.7,3.7,0,0,0-1.24-.23c-.72,0-1.35,0-1.89,0a4.11,4.11,0,0,1-.81,0,.81.81,0,0,0-.05-.19l-.18-.52Z" fill="#fff"/>
      <path d="M217.12,35.73h-1.74a2.55,2.55,0,0,0-.86-1.12,1.76,1.76,0,0,0-1-.33h-.19v-.23h4.72v.23h-.18a.91.91,0,0,0-.71.38A1.11,1.11,0,0,0,217.12,35.73ZM221,48.17l-6.32-14h1.81l4.9,11.93Zm0,0-.16-1.59,5.27-12.46h1.45L222.11,45.8c-.16.37-.31.69-.42,1s-.22.53-.31.79a2.68,2.68,0,0,0-.16.62Zm4.44-12.44a1,1,0,0,0-.07-1.07,1,1,0,0,0-.74-.38h-.16v-.23h4.37v.23h-.18a1.82,1.82,0,0,0-1,.33,2.64,2.64,0,0,0-.87,1.12Z" fill="#fff"/>
      <path d="M231.68,35.52h-.07a1.12,1.12,0,0,0-.47-.88,1.68,1.68,0,0,0-1.09-.36h-.32v-.23h2Zm0,10.86v1.47h-2v-.23h.32a1.64,1.64,0,0,0,1.09-.37,1.15,1.15,0,0,0,.47-.87Zm1.38-12.33v13.8h-1.45V34.05ZM233,35.52V34.05h2l0,.23h-.3a1.71,1.71,0,0,0-1.1.36,1.15,1.15,0,0,0-.47.88Zm0,10.86h.07a1.18,1.18,0,0,0,.47.87,1.66,1.66,0,0,0,1.1.37h.3l0,.23h-2Z" fill="#fff"/>
      <path d="M250.89,42.05l-.26,3.15a5.49,5.49,0,0,1-1.56,1.59,7.17,7.17,0,0,1-2.18,1,9.14,9.14,0,0,1-2.58.36,8.85,8.85,0,0,1-4-.9,6.18,6.18,0,0,1-2.63-2.48,7.63,7.63,0,0,1-.92-3.84,7.68,7.68,0,0,1,.92-3.86,6.15,6.15,0,0,1,2.63-2.49,8.84,8.84,0,0,1,4-.87,11.36,11.36,0,0,1,2.87.37,8.57,8.57,0,0,1,2.51,1l.51,3.24H250a4.6,4.6,0,0,0-2-3,7,7,0,0,0-3.67-.92,6,6,0,0,0-3.14.79,5.3,5.3,0,0,0-2.05,2.26,8.67,8.67,0,0,0,0,6.92,5.29,5.29,0,0,0,2.06,2.25,6.25,6.25,0,0,0,3.15.82,8.38,8.38,0,0,0,3.12-.56,5.24,5.24,0,0,0,2.26-1.76,5.78,5.78,0,0,0,1-3.09Z" fill="#fff"/>
      <path d="M254.47,35.5h0a1.28,1.28,0,0,0-.39-.88,1.33,1.33,0,0,0-.95-.34h-.32v-.23h2Zm0,10.88.3,1.47h-2v-.23h.32a1.27,1.27,0,0,0,.95-.37,1.32,1.32,0,0,0,.39-.87Zm1.43-12.33v13.8h-1.47V34.05Zm6.16,0v.71h-6.21v-.71ZM261,40.6v.69h-5.16V40.6Zm1.08,6.54,0,.71h-6.19v-.71Zm1.29-2.58-1.27,3.29h-3.5l.79-.71a4.25,4.25,0,0,0,1.85-.34,3,3,0,0,0,1.14-.92,7,7,0,0,0,.76-1.32Zm-1.32-10.88v.6l-2.62-.23a9.18,9.18,0,0,0,1.52-.13A5.38,5.38,0,0,0,262.06,33.68ZM261,39.34v1.31h-1.2v0a.85.85,0,0,0,.71-.28,1,1,0,0,0,.23-.68v-.3Zm0,1.91v1.31h-.26v-.3a1,1,0,0,0-.23-.68.86.86,0,0,0-.71-.29v0Zm1.05-6.56v1.59h-.25v-.34a1.17,1.17,0,0,0-.31-.83,1.09,1.09,0,0,0-.84-.35v-.07Z" fill="#fff"/>
    </g>
  </g>
</svg>
