<svg xmlns="http://www.w3.org/2000/svg" width="4in" height="0.87in" viewBox="0 0 288 62.61">
  <g id="Logo_Artwork" data-name="Logo Artwork">
    <path d="M30.81,4.69H41Q42.49,5,54.16,12,60.73,23.19,61.24,25V37.9q-.33,1.51-7.34,13.16-12,6.86-12.67,6.86H27.29Q15,51.05,14.36,49.8,8,38.57,8,37.9V24.71q0-.93,7.34-12.94Q27,4.95,28,5A11.25,11.25,0,0,1,30.81,4.69Zm-19,15.2Q9.28,24.45,9.28,25V30A57.24,57.24,0,0,0,14.36,26C13,21.91,12.11,19.89,11.84,19.89ZM9.28,32.82v5.56c1.7,2.72,2.56,4.25,2.56,4.6h.22a66.56,66.56,0,0,0,2.3-6.34Zm.26-1.26q.51,0,5.34,4h.22c0-2,1.1-3,3.3-3l10.67-1V31.3L16.62,30c-.57,0-1.08-.92-1.52-2.78h-.22A62.81,62.81,0,0,0,9.54,31.56ZM13.1,19.15l2.26,6.08a12.86,12.86,0,0,1,2.56-1.78q6,2.78,11.63,5.07Q21.33,22,19.18,20.93l.51-3Q13.11,18.77,13.1,19.15Zm.34-1.56a19.34,19.34,0,0,0,4.77-.68c.4-.09,1.62-.25,1.71-.8q.51-3.15.77-5.86h-.25c-1.9.91-4.17,1.82-5.32,3.69C14.59,14.81,13.31,16.57,13.44,17.59Zm4.21,21.57-2.29-1.52c-1.34,3.14-2,5.25-2,6.34a61.84,61.84,0,0,1,6.33,1l-.26-2.52V42.2q.12-.45,9.64-7.6h-.26A118.07,118.07,0,0,1,17.65,39.16Zm-4.29,6.08a16,16,0,0,0,3.09,4.95,14.57,14.57,0,0,0,3.44,2.05c.67.34.86.41.83-.43,0-.56-.19-1.11-.26-1.67s-.16-1.38-.27-2.07a5,5,0,0,0-.5-2Zm2.52-18.75Q16.47,29,18.4,29q1.37,0,11.67,1.29h.26V30a101.21,101.21,0,0,1-12.16-5.33A8.71,8.71,0,0,0,15.88,26.49Zm0,9.89a7.43,7.43,0,0,0,2,1.52l12.15-5.08v-.26h-.26q-13.18,1.26-13.19,1.78A9,9,0,0,1,15.88,36.38Zm4.56,6.34A11.71,11.71,0,0,1,21,45.24h.75l1.77.26q1.26-2,8.12-10.9h-.26Q29,36.13,20.44,42.72Zm.25-22.57q0,.33,10.64,8.11h.26q-8.14-10.89-8.37-10.89c-1.68,0-2.53.5-2.53,1.52ZM22,10l-.75,6.34h.23L24,16.11q7.08,9.41,7.34,10.12h.26V26q-4.82-10.63-4.82-11.9c.23,0,.73-.59,1.52-1.78V12Q23,10,22,10Zm2,36.73a11.52,11.52,0,0,1-2.78-.52v.26L22,52.84h.25c.5,0,2.52-.75,6.08-2.26l-1.52-2.3q0-.33,4.82-11.64Q31.22,36.75,24,46.76Zm-1,7.12v.22c1.48.74,2.91,1.6,4.35,2.42a2.5,2.5,0,0,0,.73.32,19.92,19.92,0,0,0,2.9.12c.43,0,1.67.26,2-.05s-1.32-2.37-1.68-2.84-1.85-2.78-2.48-2.49C25.48,53.11,23.52,53.88,23,53.88Zm.26-45.37V9c1.18.35,3.21,1.11,6.07,2.3q1-1.44,4.08-5.34H28.55Q27.92,6,23.22,8.51Zm6.07,4.56A6.52,6.52,0,0,0,28,14.85l5.34,12.41h.26L31.85,13.55A6.74,6.74,0,0,0,29.29,13.07Zm3.82,22.79L28,48.28c.84.74,1.26,1.33,1.26,1.78,1.88-.32,2.82-.83,2.82-1.52l1.26-12.16v-.52ZM30.33,11.77c1.85.3,2.78,1,2.78,2a113.38,113.38,0,0,1,1.26,11.93h.26q1.26-13.18,2-13.19c1.33-.35,2-.68,2-1Q34.89,7,34.89,6.47h-.26A62.92,62.92,0,0,0,30.33,11.77Zm4,25.35q-.88,13.2-2,13.2c-1.33.34-2,.68-2,1a21.51,21.51,0,0,1,4,5.08c2.87-3.09,4.3-4.95,4.3-5.56h-.22q-2.82,0-2.82-5.34l-1-8.38ZM31.59,31v.78q.53,2.52,2.52,2.52h.78q2.78,0,2.78-3.3,0-2.1-3.3-2.78C32.52,28.83,31.59,29.76,31.59,31Zm5.56-17.49Q36.92,17,35.63,27v.26h.26q0-.41,5.34-12.67c-1-1.19-1.67-1.78-2-1.78A5.31,5.31,0,0,1,37.15,13.55ZM35.63,35.6q1.41,13.73,2,13.72a5.54,5.54,0,0,0,2,.74l1.52-2q-5.34-11.9-5.34-12.42ZM35.89,6,40,11.29A55.41,55.41,0,0,1,46.05,9V8.51Q41.3,5.95,40.71,6ZM40,51.58l-4.08,5.08.52.26h4.82c3.21-1.83,4.82-2.85,4.82-3Zm1-39.29a7.94,7.94,0,0,1,1.52,2.56q-1.08,2.07-5.08,11.64,7.16-9.68,8.12-10.38l2.52.26v-.26q-.75-6.34-1.26-6.34Q41,12.07,41,12.29ZM37.41,36.38v.26q5.09,10.94,5.08,11.9c-.22,0-.82.68-1.78,2a41.79,41.79,0,0,0,6.34,2.26,41.66,41.66,0,0,0,1-6.6h-.22a2.08,2.08,0,0,1-1,.26H45.27Q45.09,46.5,37.41,36.38Zm8.12-19q-.45,1-7.86,10.89h.26q10.64-7.82,10.64-8.37c-.1-1.51-.28-2.26-.52-2.26S47,17.54,45.53,17.37ZM37.67,34.6q6.93,9,7.86,10.9c2,0,3-.59,3-1.78V42.46L37.93,34.6ZM38.93,30v.26h.26q13.45-1.34,13.45-2l.49-1.77c-.67-1-1.35-1.52-2-1.52Zm.26,2.52v.26L51.35,37.9c1.18-.81,1.78-1.32,1.78-1.52q0-2.77-3.56-2.78c-.87,0-4.24-.34-10.12-1ZM49.57,17.89l.26,3Q40,28.27,39.45,28.26v.26H40q8.14-3.81,11.64-5.07a7.68,7.68,0,0,0,2.29,1.78c1.34-3.56,2-5.68,2-6.34ZM39.71,34.34q10.11,7.42,10.12,8.12c0,.2-.09,1-.26,2.52.17-.17,2.37-.51,6.6-1L53.9,37.64h-.25l-2,1.52h-.26Zm14.45-7.08C53.87,29.12,53,30,51.61,30L40.19,31.3v.26q13.2,1.08,13.2,1.78l.77,2.26a34.13,34.13,0,0,0,5.3-4.3V31q-.51,0-5.07-3.78ZM48.31,10q.78,6.83,1.78,6.82l5.82.78c-1.78-3.61-3.22-5.56-4.3-5.86A30.41,30.41,0,0,1,48.31,10Zm1,36.21-1,6.34h.26q5.34-2.27,6.59-6.08l.75-1.26h-.23C52,45.61,49.91,45.94,49.35,46.24ZM54.65,26Q58.54,29.12,60,30V25.23q0-.63-2.55-5.34C57,20.26,56.1,22.28,54.65,26Zm0,10.89a33.44,33.44,0,0,1,2.29,5.86h.49Q60,38.39,60,37.64V32.82h-.26Q59.54,32.82,54.65,36.86Z"/>
    <g>
      <path d="M70.66,25.77v1.49H68.33V27h.34a1.58,1.58,0,0,0,1-.34,1.32,1.32,0,0,0,.51-.93Zm1.27-12.23h.22l.45,1.32-1.39,12.4H70Zm-.6,12.56a1,1,0,0,0,.15.64.74.74,0,0,0,.67.32h.31v.2H71.19V26.1Zm.82-12.56,6.08,11.69-.51,2.35L71.73,16Zm11.6,0L84,15,78.72,25.3c-.22.5-.39.93-.51,1.28a7.14,7.14,0,0,0-.27,1h-.22l-.32-1.41Zm.2,0,2,13.72h-1.7L82.81,16l.94-2.48Zm.16,12.56h.15v1.16H83v-.2h.33a.72.72,0,0,0,.68-.33A1,1,0,0,0,84.11,26.1Zm1.18-.33h.45a1.37,1.37,0,0,0,.53.93,1.62,1.62,0,0,0,1,.34h.33v.22H85.29Z"/>
      <path d="M89.74,13.86V15h0a1,1,0,0,0-.32-.68,1,1,0,0,0-.75-.28h-.34v-.22Zm1.38,0V22.3a5,5,0,0,0,1.11,3.42,3.79,3.79,0,0,0,3,1.25,4.61,4.61,0,0,0,3.35-1.18,4.31,4.31,0,0,0,1.21-3.24V13.86h1v8.69a4.68,4.68,0,0,1-1.49,3.67,6.81,6.81,0,0,1-8.15,0,4.62,4.62,0,0,1-1.51-3.66V13.86Zm1.41,0v.22h-.34a1.07,1.07,0,0,0-.74.28.86.86,0,0,0-.33.68h0V13.86Zm7.33,0V15h0a.87.87,0,0,0-.31-.68,1.08,1.08,0,0,0-.76-.28h-.33v-.22Zm2.39,0v.22h-.34a1,1,0,0,0-.73.28,1,1,0,0,0-.34.68h0V13.86Z"/>
      <path d="M108,13.54c.42,0,.78,0,1.1.05s.58.06.81.1a5.57,5.57,0,0,1,.6.13L111,14l0,2.21h-.26a1.77,1.77,0,0,0-.63-1.44,3,3,0,0,0-1.94-.53,3,3,0,0,0-1.91.62,1.77,1.77,0,0,0-.77,1.51,2.44,2.44,0,0,0,.07.59,2.4,2.4,0,0,0,.27.59,2.79,2.79,0,0,0,.53.58l4.51,3.49a2.47,2.47,0,0,1,.76,1.08,4.44,4.44,0,0,1,.27,1.31,3.16,3.16,0,0,1-.52,1.81,3.8,3.8,0,0,1-1.44,1.31,4.19,4.19,0,0,1-2,.48,8.8,8.8,0,0,1-1.39-.12,7.35,7.35,0,0,1-1.4-.34,3.73,3.73,0,0,1-1.07-.59,3.6,3.6,0,0,1-.07-.8,7.21,7.21,0,0,1,.08-1,6.09,6.09,0,0,1,.21-1h.27a3.08,3.08,0,0,0,.29,1.73A2.54,2.54,0,0,0,106,26.56a3.73,3.73,0,0,0,1.72.35,3.51,3.51,0,0,0,2.18-.71,2.18,2.18,0,0,0,.79-1.75,2.33,2.33,0,0,0-.19-1,2.44,2.44,0,0,0-.61-.82l-4.47-3.44a2.75,2.75,0,0,1-.85-1.18,3.84,3.84,0,0,1-.23-1.23,2.92,2.92,0,0,1,.5-1.66A3.49,3.49,0,0,1,106.12,14,4,4,0,0,1,108,13.54Zm3,.21,0,.4h-1.58v-.4Z"/>
      <path d="M115.7,15.29h0a1.17,1.17,0,0,0-.4-.86,1.33,1.33,0,0,0-.94-.35h-.26v-.22h1.65Zm0,10.54.29,1.43h-1.94V27h.31a1.27,1.27,0,0,0,1.29-1.21Zm1.38-12v13.4h-1.43V13.86ZM117,15.29V13.86h1.65v.22h-.27a1.34,1.34,0,0,0-.92.35,1.07,1.07,0,0,0-.4.86Zm6.07,11.28,0,.69h-6v-.69Zm1.26-2.5-1.23,3.19h-3.4l.76-.69a4.36,4.36,0,0,0,1.8-.32,3,3,0,0,0,1.1-.9,6.39,6.39,0,0,0,.74-1.28Z"/>
      <path d="M127.12,15.29h-.07a1.13,1.13,0,0,0-.46-.86,1.65,1.65,0,0,0-1.06-.35h-.31v-.22h1.9Zm0,10.54v1.43h-1.9V27h.31a1.6,1.6,0,0,0,1.06-.36,1.16,1.16,0,0,0,.46-.85Zm1.34-12v13.4h-1.41V13.86Zm-.07,1.43V13.86h1.9l0,.22H130a1.65,1.65,0,0,0-1.06.35,1.07,1.07,0,0,0-.46.86Zm0,10.54h.07a1.1,1.1,0,0,0,.46.85A1.6,1.6,0,0,0,130,27h.29l0,.22h-1.9Z"/>
      <path d="M133.73,25.77v1.49h-2.32V27h.33a1.59,1.59,0,0,0,1-.34,1.27,1.27,0,0,0,.5-.93ZM135,13.54h.23l.44,1.32-1.38,12.4h-1.23Zm-.6,12.56a1.13,1.13,0,0,0,.16.64.74.74,0,0,0,.67.32h.31v.2h-1.27V26.1Zm.83-12.56,6.07,11.69-.51,2.35L134.8,16Zm11.59,0L147,15,141.8,25.3c-.23.5-.4.93-.52,1.28a7.14,7.14,0,0,0-.27,1h-.22l-.31-1.41Zm.2,0,2,13.72h-1.7L145.88,16l.94-2.48Zm.16,12.56h.16v1.16H146v-.2h.34a.72.72,0,0,0,.68-.33A1,1,0,0,0,147.18,26.1Zm1.18-.33h.45a1.35,1.35,0,0,0,.54.93,1.59,1.59,0,0,0,1,.34h.34v.22h-2.33Z"/>
      <path d="M159.09,25.63a1,1,0,0,0,.07,1,.89.89,0,0,0,.71.37h.18v.22h-4.27V27H156a1.8,1.8,0,0,0,1-.32,2.58,2.58,0,0,0,.85-1.09Zm4.31-12.09.16,1.55L158.44,27.2H157l5.3-11.35c.16-.36.3-.67.41-.93s.21-.52.3-.77a2.63,2.63,0,0,0,.16-.61ZM166,22.06v.67h-5.92v-.67Zm-2.64-8.52,6.15,13.59h-1.77L163,15.53Zm3.78,12.09h1.7a2.4,2.4,0,0,0,.82,1.09,1.76,1.76,0,0,0,.94.32h.18v.22h-4.58V27h.18a.89.89,0,0,0,.69-.37A1,1,0,0,0,167.18,25.63Z"/>
      <path d="M172.94,25.77v1.49h-2.32V27H171a1.59,1.59,0,0,0,1-.34,1.27,1.27,0,0,0,.5-.93Zm1.28-12.23h.22l.45,1.32-1.39,12.4h-1.23Zm-.61,12.56a1.13,1.13,0,0,0,.16.64.74.74,0,0,0,.67.32h.31v.2h-1.27V26.1Zm.83-12.56,6.08,11.69L180,27.58,174,16Zm11.6,0,.2,1.46L181,25.3c-.23.5-.4.93-.52,1.28a7,7,0,0,0-.26,1H180l-.31-1.41Zm.2,0,2,13.72h-1.7L185.1,16l.94-2.48Zm.15,12.56h.16v1.16h-1.3v-.2h.34a.72.72,0,0,0,.68-.33A1,1,0,0,0,186.39,26.1Zm1.19-.33H188a1.35,1.35,0,0,0,.54.93,1.6,1.6,0,0,0,1,.34h.33v.22h-2.32Z"/>
      <path d="M192.67,15.26h0a1.22,1.22,0,0,0-.38-.84,1.28,1.28,0,0,0-.92-.34H191v-.22H193Zm0,10.57.29,1.43H191V27h.31a1.25,1.25,0,0,0,.92-.36,1.31,1.31,0,0,0,.38-.85Zm1.39-12v13.4h-1.43V13.86Zm6,0v.69h-6v-.69Zm-1,6.36v.68h-5v-.68Zm1,6.35,0,.69h-6v-.69Zm1.25-2.5-1.23,3.19h-3.4l.76-.69a4.3,4.3,0,0,0,1.8-.32,3.07,3.07,0,0,0,1.11-.9,6.88,6.88,0,0,0,.73-1.28ZM200,13.5v.58l-2.54-.22a8.61,8.61,0,0,0,1.47-.13A6.38,6.38,0,0,0,200,13.5ZM199,19v1.27h-1.17v-.05a.86.86,0,0,0,.7-.27,1,1,0,0,0,.22-.66V19Zm0,1.85v1.27h-.25v-.29a1,1,0,0,0-.22-.66.86.86,0,0,0-.7-.27v0Zm1-6.37V16h-.24v-.33a1.2,1.2,0,0,0-.3-.81,1.08,1.08,0,0,0-.82-.33v-.07Z"/>
      <path d="M204.36,15.26h-.05a1.14,1.14,0,0,0-.38-.84,1.22,1.22,0,0,0-.89-.34h-.31v-.22h1.89Zm0,10.57.26,1.43h-1.89V27H203a1.2,1.2,0,0,0,.89-.36,1.22,1.22,0,0,0,.38-.85Zm1.36-12v13.4h-1.43V13.86Zm-.07,12h.07A1.27,1.27,0,0,0,207,27h.29l0,.22h-1.93Zm2.68-12a6.88,6.88,0,0,1,1.89.24,4.09,4.09,0,0,1,1.43.72,3.05,3.05,0,0,1,.91,1.14,3.65,3.65,0,0,1,.31,1.52,3.53,3.53,0,0,1-.45,1.74,3.73,3.73,0,0,1-1.24,1.32,4.07,4.07,0,0,1-1.8.62,2.87,2.87,0,0,1,.89.7,8.82,8.82,0,0,1,.86,1.05c.38.52.73,1,1,1.35s.6.74.9,1.08.6.64.86.89a2.87,2.87,0,0,0,.85.6,2.51,2.51,0,0,0,1.06.21v.22h-.69a5.5,5.5,0,0,1-2-.31,4.2,4.2,0,0,1-1.29-.77,11.35,11.35,0,0,1-.85-.88l-.41-.57-.7-1c-.26-.35-.49-.68-.7-1l-.38-.52a5.63,5.63,0,0,0-1-1,1.9,1.9,0,0,0-1.22-.46v-.22c.47,0,.9,0,1.27,0s.83-.05,1.25-.11a2.4,2.4,0,0,0,1.17-.48,2.5,2.5,0,0,0,.86-1.34,2.6,2.6,0,0,0,.14-.58,3.92,3.92,0,0,0,0-.69A3,3,0,0,0,211,16.2a2.71,2.71,0,0,0-.61-.85,2.92,2.92,0,0,0-.92-.55,3.77,3.77,0,0,0-1.21-.23c-.7,0-1.31,0-1.83,0h-.79a.71.71,0,0,0,0-.19c0-.11-.09-.28-.17-.5Z"/>
      <path d="M218.36,15.29h-.06a1.13,1.13,0,0,0-.46-.86,1.65,1.65,0,0,0-1.06-.35h-.31v-.22h1.89Zm0,10.54v1.43h-1.89V27h.31a1.6,1.6,0,0,0,1.06-.36,1.16,1.16,0,0,0,.46-.85Zm1.35-12v13.4H218.3V13.86Zm-.07,1.43V13.86h1.9l0,.22h-.3a1.67,1.67,0,0,0-1.06.35,1.09,1.09,0,0,0-.45.86Zm0,10.54h.07a1.12,1.12,0,0,0,.45.85,1.62,1.62,0,0,0,1.06.36h.3l0,.22h-1.9Z"/>
      <path d="M237,21.63l-.24,3.06a5.56,5.56,0,0,1-1.52,1.54,7.2,7.2,0,0,1-2.13,1,8.88,8.88,0,0,1-2.5.35,8.75,8.75,0,0,1-3.92-.88,6,6,0,0,1-2.56-2.41,7.46,7.46,0,0,1-.89-3.73,7.48,7.48,0,0,1,.89-3.75,6,6,0,0,1,2.56-2.42,8.61,8.61,0,0,1,3.92-.85,11.19,11.19,0,0,1,2.79.36,8.61,8.61,0,0,1,2.44,1l.49,3.15h-.2a4.45,4.45,0,0,0-2-2.95,6.75,6.75,0,0,0-3.56-.9,5.77,5.77,0,0,0-3.05.78,5.13,5.13,0,0,0-2,2.18,7.57,7.57,0,0,0-.7,3.39,7.44,7.44,0,0,0,.7,3.34,5.12,5.12,0,0,0,2,2.19,6,6,0,0,0,3.06.79,8.1,8.1,0,0,0,3-.54,5.09,5.09,0,0,0,2.2-1.71,5.51,5.51,0,0,0,1-3Z"/>
      <path d="M240.82,25.63a1,1,0,0,0,.07,1,.9.9,0,0,0,.71.37h.18v.22h-4.27V27h.18a1.8,1.8,0,0,0,1-.32,2.58,2.58,0,0,0,.85-1.09Zm4.31-12.09.16,1.55L240.17,27.2h-1.41l5.3-11.35c.16-.36.3-.67.41-.93s.22-.52.3-.77a2.63,2.63,0,0,0,.16-.61Zm2.64,8.52v.67h-5.92v-.67Zm-2.64-8.52,6.15,13.59h-1.77l-4.76-11.6Zm3.78,12.09h1.7a2.4,2.4,0,0,0,.82,1.09,1.76,1.76,0,0,0,.94.32h.18v.22H248V27h.18a.89.89,0,0,0,.69-.37A1,1,0,0,0,248.91,25.63Z"/>
      <path d="M254.63,25.88v1.38H253V27h.38a1.21,1.21,0,0,0,.87-.34,1.06,1.06,0,0,0,.36-.82Zm0-12.36,1,1.25,0,12.49h-1v-11a24.56,24.56,0,0,0-.2-2.79Zm0,0L267,25.18l.22,2.4L254.81,15.85Zm1,12.36a1.06,1.06,0,0,0,.36.82,1.23,1.23,0,0,0,.86.34h.38v.22H255.5V25.88ZM266.2,15.24a1.12,1.12,0,0,0-.38-.82,1.21,1.21,0,0,0-.87-.34h-.38v-.22h1.68v1.38Zm1-1.38V24.72c0,.47,0,.93.05,1.37s.08.93.16,1.49h-.21l-1-1.19V13.86Zm-.06,1.38V13.86h1.67v.22h-.38a1.23,1.23,0,0,0-.86.34,1.07,1.07,0,0,0-.37.82Z"/>
      <path d="M274.54,13.54c.41,0,.78,0,1.09.05s.58.06.82.1a5.57,5.57,0,0,1,.6.13l.46.15,0,2.21h-.27a1.8,1.8,0,0,0-.62-1.44,3,3,0,0,0-1.95-.53,3,3,0,0,0-1.91.62,1.79,1.79,0,0,0-.77,1.51,2.46,2.46,0,0,0,.08.59,1.84,1.84,0,0,0,.27.59,2.72,2.72,0,0,0,.52.58l4.52,3.49a2.45,2.45,0,0,1,.75,1.08,3.88,3.88,0,0,1,.27,1.31,3.07,3.07,0,0,1-.51,1.81,4,4,0,0,1-1.44,1.31,4.22,4.22,0,0,1-2,.48,8.93,8.93,0,0,1-1.4-.12,7.54,7.54,0,0,1-1.4-.34,3.87,3.87,0,0,1-1.07-.59,4.42,4.42,0,0,1-.06-.8,7.15,7.15,0,0,1,.07-1,7.36,7.36,0,0,1,.22-1h.26a3.08,3.08,0,0,0,.29,1.73,2.6,2.6,0,0,0,1.12,1.08,3.75,3.75,0,0,0,1.72.35,3.48,3.48,0,0,0,2.18-.71,2.15,2.15,0,0,0,.79-1.75,2.27,2.27,0,0,0-.8-1.79l-4.47-3.44a2.75,2.75,0,0,1-.85-1.18,3.81,3.81,0,0,1-.22-1.23,2.91,2.91,0,0,1,.49-1.66A3.52,3.52,0,0,1,272.67,14,4,4,0,0,1,274.54,13.54Zm2.94.21,0,.4h-1.59v-.4Z"/>
      <path d="M71.28,35.49h-.07a1.11,1.11,0,0,0-.45-.86,1.67,1.67,0,0,0-1.07-.34h-.31v-.23h1.9Zm0,10.55v1.43h-1.9v-.23h.31a1.62,1.62,0,0,0,1.07-.35,1.12,1.12,0,0,0,.45-.85Zm1.34-12V47.47H71.21V34.06Zm-.07,1.43V34.06h1.9l0,.23h-.29a1.64,1.64,0,0,0-1.06.34,1.15,1.15,0,0,0-.46.86Zm0,10.55h.07a1.16,1.16,0,0,0,.46.85,1.59,1.59,0,0,0,1.06.35h.29l0,.23h-1.9Z"/>
      <path d="M77.85,46.08v1.39H76.17v-.23h.38a1.25,1.25,0,0,0,.88-.33,1.11,1.11,0,0,0,.35-.83Zm0-12.35,1,1.25,0,12.49h-1V36.52a22.44,22.44,0,0,0-.2-2.79Zm0,0L90.18,45.39l.23,2.39L78,36.05Zm1,12.35a1.06,1.06,0,0,0,.37.83,1.23,1.23,0,0,0,.86.33h.38v.23H78.72V46.08ZM89.42,35.45a1.14,1.14,0,0,0-.38-.83,1.22,1.22,0,0,0-.87-.33h-.38v-.23h1.68v1.39Zm1-1.39V44.92c0,.48,0,.94,0,1.38s.08.93.16,1.48h-.2l-1-1.18V34.06Zm-.07,1.39V34.06H92v.23h-.38a1.23,1.23,0,0,0-.86.33,1.06,1.06,0,0,0-.37.83Z"/>
      <path d="M100.73,35.47h0a1.14,1.14,0,0,0-.39-.85,1.28,1.28,0,0,0-.9-.33h-.31v-.23H101Zm0,10.57.29,1.43H99.08v-.23h.31a1.21,1.21,0,0,0,.9-.35,1.19,1.19,0,0,0,.39-.85Zm1.38-12V47.47h-1.43V34.06Zm-.06,12h0a1.27,1.27,0,0,0,.39.85,1.25,1.25,0,0,0,.91.35h.31v.23h-1.94Zm2.25-12a7.35,7.35,0,0,1,2.71.46,3.93,3.93,0,0,1,1.76,1.32,3.34,3.34,0,0,1,.63,2,4,4,0,0,1-.57,2.18,3.81,3.81,0,0,1-1.51,1.39,4.51,4.51,0,0,1-2.08.47,5.33,5.33,0,0,1-2.28-.57v-.23a7.34,7.34,0,0,0,1.32.13,4.67,4.67,0,0,0,1.23-.21,3.09,3.09,0,0,0,1.22-.7,3.42,3.42,0,0,0,.9-1.47,2.93,2.93,0,0,0,.13-.58q0-.34,0-.63a2.65,2.65,0,0,0-.94-2.15,3.93,3.93,0,0,0-2.59-.78h-2.19c-.08-.22-.16-.44-.25-.67Z"/>
      <path d="M112.28,34.06v1.19h0a1,1,0,0,0-.33-.69,1.08,1.08,0,0,0-.75-.27h-.33v-.23Zm1.39,0v8.45a5,5,0,0,0,1.1,3.42,3.86,3.86,0,0,0,3,1.25A4.59,4.59,0,0,0,121.14,46a4.32,4.32,0,0,0,1.22-3.24V34.06h1v8.69a4.73,4.73,0,0,1-1.48,3.68,5.84,5.84,0,0,1-4.08,1.35,6,6,0,0,1-4.08-1.34,4.65,4.65,0,0,1-1.5-3.66V34.06Zm1.4,0v.23h-.33a1.13,1.13,0,0,0-.75.27.87.87,0,0,0-.32.69h0V34.06Zm7.33,0v1.19h0a.9.9,0,0,0-.32-.69,1.1,1.1,0,0,0-.76-.27H121v-.23Zm2.39,0v.23h-.33a1.09,1.09,0,0,0-.74.27,1,1,0,0,0-.34.69h0V34.06Z"/>
      <path d="M128.21,35.49h-.07a1.15,1.15,0,0,0-.39-.87,1.36,1.36,0,0,0-1-.33h-.26v-.23h1.67Zm0,10.55v1.43h-1.67v-.23h.26a1.28,1.28,0,0,0,1-.35,1.19,1.19,0,0,0,.39-.85Zm1.34-12V47.47h-1.41V34.06Zm1.54,0a10.85,10.85,0,0,1,1.4.11,5.85,5.85,0,0,1,1.53.45,3.08,3.08,0,0,1,1.23,1,2.91,2.91,0,0,1,.49,1.78,2.36,2.36,0,0,1-.36,1.26,3.37,3.37,0,0,1-.91,1,3.54,3.54,0,0,1-1.19.54,4.67,4.67,0,0,1,1.94.62,4,4,0,0,1,1.32,1.26,3,3,0,0,1,.5,1.65,3.45,3.45,0,0,1-.46,1.83,3.57,3.57,0,0,1-1.2,1.15,5.46,5.46,0,0,1-1.61.6,8.31,8.31,0,0,1-1.69.18h-2.73c0-.23,0-.45,0-.67h2.68a4.42,4.42,0,0,0,1.74-.33,2.55,2.55,0,0,0,1.21-1,3.14,3.14,0,0,0,.45-1.75,2.76,2.76,0,0,0-1.7-2.73,5.79,5.79,0,0,0-1.67-.47,14.21,14.21,0,0,0-1.84-.12v-.23a10,10,0,0,0,1.3-.09,4.13,4.13,0,0,0,1.28-.37,2.43,2.43,0,0,0,1-.82,2.58,2.58,0,0,0,.38-1.47,2.42,2.42,0,0,0-.83-2,3.61,3.61,0,0,0-2.28-.64h-2.43a1.38,1.38,0,0,0-.06-.19q-.06-.16-.15-.48Z"/>
      <path d="M140.66,35.49h0a1.19,1.19,0,0,0-.4-.86,1.34,1.34,0,0,0-.94-.34H139v-.23h1.66Zm0,10.55.29,1.43H139v-.23h.31a1.25,1.25,0,0,0,1.3-1.2Zm1.38-12V47.47h-1.43V34.06ZM142,35.49V34.06h1.66v.23h-.27a1.35,1.35,0,0,0-.93.34,1.11,1.11,0,0,0-.39.86Zm6.08,11.29,0,.69h-6v-.69Zm1.25-2.51-1.23,3.2h-3.39l.76-.69a4.19,4.19,0,0,0,1.8-.33,2.84,2.84,0,0,0,1.1-.89,6.69,6.69,0,0,0,.74-1.29Z"/>
      <path d="M152.07,35.49H152a1.15,1.15,0,0,0-.46-.86,1.66,1.66,0,0,0-1.06-.34h-.32v-.23h1.9Zm0,10.55v1.43h-1.9v-.23h.32a1.61,1.61,0,0,0,1.06-.35A1.16,1.16,0,0,0,152,46Zm1.34-12V47.47H152V34.06Zm-.06,1.43V34.06h1.9l0,.23h-.29a1.66,1.66,0,0,0-1.06.34,1.15,1.15,0,0,0-.46.86Zm0,10.55h.06a1.16,1.16,0,0,0,.46.85,1.61,1.61,0,0,0,1.06.35h.29l0,.23h-1.9Z"/>
      <path d="M170.73,41.84l-.25,3.06A5.43,5.43,0,0,1,169,46.44a7.25,7.25,0,0,1-2.12,1,9.2,9.2,0,0,1-6.42-.52,6.09,6.09,0,0,1-2.56-2.41,7.38,7.38,0,0,1-.89-3.73,7.42,7.42,0,0,1,.89-3.76,6.09,6.09,0,0,1,2.56-2.41,8.46,8.46,0,0,1,3.92-.85,11.24,11.24,0,0,1,2.79.36,8.6,8.6,0,0,1,2.44,1l.49,3.15h-.2a4.48,4.48,0,0,0-2-2.95,6.84,6.84,0,0,0-3.56-.89,5.83,5.83,0,0,0-3,.77,5.1,5.1,0,0,0-2,2.19,7.54,7.54,0,0,0-.7,3.39,7.44,7.44,0,0,0,.7,3.34,5.18,5.18,0,0,0,2,2.19,6.1,6.1,0,0,0,3.06.79,7.9,7.9,0,0,0,3-.55,5,5,0,0,0,2.2-1.71,5.62,5.62,0,0,0,1-3Z"/>
      <path d="M181.88,33.75c.42,0,.78,0,1.09,0s.59.07.82.11a3.88,3.88,0,0,1,.6.13l.46.14,0,2.22h-.27a1.79,1.79,0,0,0-.62-1.45,3.58,3.58,0,0,0-3.86.09,1.83,1.83,0,0,0-.77,1.51,2.39,2.39,0,0,0,.08.59,1.89,1.89,0,0,0,.27.6,3.06,3.06,0,0,0,.53.58l4.51,3.48a2.65,2.65,0,0,1,.76,1.09,4.37,4.37,0,0,1,.27,1.3,3.14,3.14,0,0,1-.52,1.81,3.8,3.8,0,0,1-1.44,1.31,4.19,4.19,0,0,1-2,.48,10,10,0,0,1-1.39-.11,7.35,7.35,0,0,1-1.4-.35,3.31,3.31,0,0,1-1.07-.59,3.5,3.5,0,0,1-.07-.79,7.47,7.47,0,0,1,.08-1,5.73,5.73,0,0,1,.21-1h.27a3,3,0,0,0,.29,1.72,2.4,2.4,0,0,0,1.12,1.08,3.49,3.49,0,0,0,1.72.35,3.45,3.45,0,0,0,2.17-.7,2.18,2.18,0,0,0,.8-1.76,2.54,2.54,0,0,0-.19-1,2.31,2.31,0,0,0-.62-.81l-4.47-3.45a2.67,2.67,0,0,1-.84-1.18,3.75,3.75,0,0,1-.23-1.23,3,3,0,0,1,.49-1.65A3.52,3.52,0,0,1,180,34.19,4,4,0,0,1,181.88,33.75Zm3,.2,0,.4h-1.59V34Z"/>
      <path d="M189.59,35.47h-.05a1.16,1.16,0,0,0-.38-.85,1.29,1.29,0,0,0-.91-.33h-.32v-.23h1.95Zm0,10.57.29,1.43h-1.95v-.23h.32a1.25,1.25,0,0,0,1.29-1.2Zm1.38-12V47.47h-1.43V34.06Zm6,0v.69h-6v-.69Zm-1,6.37v.67h-5v-.67Zm1,6.35,0,.69h-6v-.69Zm1.25-2.51L197,47.47h-3.39l.76-.69a4.19,4.19,0,0,0,1.8-.33,2.84,2.84,0,0,0,1.1-.89,6.21,6.21,0,0,0,.74-1.29ZM197,33.71v.58l-2.55-.23a9.82,9.82,0,0,0,1.48-.12A6.38,6.38,0,0,0,197,33.71Zm-1,5.49v1.27h-1.16v0a.82.82,0,0,0,.69-.28,1,1,0,0,0,.23-.66V39.2Zm0,1.86v1.27h-.24V42a1,1,0,0,0-.23-.66.82.82,0,0,0-.69-.28v0Zm1-6.37v1.54h-.25v-.34a1.15,1.15,0,0,0-.3-.8,1,1,0,0,0-.81-.34v-.06Z"/>
      <path d="M201.27,35.47h0a1.2,1.2,0,0,0-.38-.85,1.28,1.28,0,0,0-.9-.33h-.31v-.23h1.9Zm0,10.57.27,1.43h-1.9v-.23H200a1.21,1.21,0,0,0,.9-.35,1.26,1.26,0,0,0,.38-.85Zm1.36-12V47.47h-1.42V34.06Zm-.06,12h.06a1.31,1.31,0,0,0,.38.85,1.21,1.21,0,0,0,.9.35h.29l0,.23H202.3Zm2.68-12a6.5,6.5,0,0,1,1.89.25,4.17,4.17,0,0,1,1.43.71,3.3,3.3,0,0,1,.9,1.14,3.56,3.56,0,0,1,.31,1.52,3.46,3.46,0,0,1-.44,1.74,3.65,3.65,0,0,1-1.24,1.32,4.08,4.08,0,0,1-1.8.63,2.66,2.66,0,0,1,.88.69,9.49,9.49,0,0,1,.86,1c.39.52.74,1,1,1.35l.91,1.09c.31.34.6.64.86.89a3,3,0,0,0,.85.59,2.47,2.47,0,0,0,1.06.21v.23h-.7a5.76,5.76,0,0,1-2-.31,3.87,3.87,0,0,1-1.28-.78,8.63,8.63,0,0,1-.85-.88q-.09-.11-.42-.57l-.7-1-.69-1-.38-.53a6,6,0,0,0-1-1,2,2,0,0,0-1.23-.46v-.22c.48,0,.9,0,1.28,0s.83,0,1.25-.1a2.48,2.48,0,0,0,1.17-.48A2.71,2.71,0,0,0,208,38.8a2.77,2.77,0,0,0,.13-.58,4,4,0,0,0,0-.69,3.23,3.23,0,0,0-.24-1.12,2.43,2.43,0,0,0-.6-.85,2.72,2.72,0,0,0-.93-.56,3.78,3.78,0,0,0-1.21-.22q-1,0-1.83,0a3.81,3.81,0,0,1-.78,0l-.06-.19c0-.11-.09-.27-.16-.5Z"/>
      <path d="M214.79,35.69h-1.7a2.49,2.49,0,0,0-.82-1.08,1.71,1.71,0,0,0-.94-.32h-.18v-.23h4.58v.23h-.18a.88.88,0,0,0-.68.36A1.05,1.05,0,0,0,214.79,35.69Zm3.78,12.09L212.42,34.2h1.77L219,45.79Zm0,0-.16-1.54,5.12-12.11h1.4l-5.29,11.35c-.17.36-.3.67-.41.93a8.26,8.26,0,0,0-.31.77,2.35,2.35,0,0,0-.15.6Zm4.31-12.09a1,1,0,0,0-.07-1,.93.93,0,0,0-.71-.36h-.16v-.23h4.25v.23H226a1.67,1.67,0,0,0-1,.32,2.53,2.53,0,0,0-.85,1.08Z"/>
      <path d="M228.93,35.49h-.06a1.15,1.15,0,0,0-.46-.86,1.66,1.66,0,0,0-1.06-.34H227v-.23h1.9Zm0,10.55v1.43H227v-.23h.32a1.61,1.61,0,0,0,1.06-.35,1.16,1.16,0,0,0,.46-.85Zm1.34-12V47.47h-1.4V34.06Zm-.06,1.43V34.06h1.9l0,.23h-.29a1.66,1.66,0,0,0-1.06.34,1.15,1.15,0,0,0-.46.86Zm0,10.55h.06a1.16,1.16,0,0,0,.46.85,1.61,1.61,0,0,0,1.06.35h.29l0,.23h-1.9Z"/>
      <path d="M247.59,41.84l-.25,3.06a5.43,5.43,0,0,1-1.52,1.54,7.25,7.25,0,0,1-2.12,1,9.2,9.2,0,0,1-6.42-.52,6.09,6.09,0,0,1-2.56-2.41,7.38,7.38,0,0,1-.89-3.73,7.42,7.42,0,0,1,.89-3.76,6.09,6.09,0,0,1,2.56-2.41,8.46,8.46,0,0,1,3.92-.85,11.24,11.24,0,0,1,2.79.36,8.6,8.6,0,0,1,2.44,1l.49,3.15h-.2a4.48,4.48,0,0,0-2-2.95,6.84,6.84,0,0,0-3.56-.89,5.83,5.83,0,0,0-3.05.77,5.1,5.1,0,0,0-2,2.19,7.54,7.54,0,0,0-.7,3.39,7.44,7.44,0,0,0,.7,3.34,5.18,5.18,0,0,0,2,2.19,6.1,6.1,0,0,0,3.06.79,7.9,7.9,0,0,0,3-.55,5,5,0,0,0,2.2-1.71,5.62,5.62,0,0,0,1-3Z"/>
      <path d="M251.07,35.47h0a1.16,1.16,0,0,0-.38-.85,1.3,1.3,0,0,0-.92-.33h-.31v-.23h2Zm0,10.57.3,1.43h-2v-.23h.31A1.25,1.25,0,0,0,251,46Zm1.39-12V47.47H251V34.06Zm6,0v.69h-6v-.69Zm-1,6.37v.67h-5v-.67Zm1.05,6.35,0,.69h-6v-.69Zm1.25-2.51-1.23,3.2H255.1l.76-.69a4.12,4.12,0,0,0,1.79-.33,2.8,2.8,0,0,0,1.11-.89,6.69,6.69,0,0,0,.74-1.29Zm-1.27-10.56v.58l-2.55-.23a9.92,9.92,0,0,0,1.48-.12A6.64,6.64,0,0,0,258.45,33.71Zm-1,5.49v1.27h-1.16v0a.82.82,0,0,0,.69-.28,1,1,0,0,0,.22-.66V39.2Zm0,1.86v1.27h-.25V42a1,1,0,0,0-.22-.66.82.82,0,0,0-.69-.28v0Zm1-6.37v1.54h-.25v-.34a1.15,1.15,0,0,0-.3-.8,1.05,1.05,0,0,0-.82-.34v-.06Z"/>
    </g>
  </g>
</svg>
